<?xml version="1.0" encoding="UTF-8"?>
<!DOCTYPE svg PUBLIC "-//W3C//DTD SVG 1.1//EN" "http://www.w3.org/Graphics/SVG/1.1/DTD/svg11.dtd">
<svg xmlns="http://www.w3.org/2000/svg" version="1.1" width="500px" height="372px" style="shape-rendering:geometricPrecision; text-rendering:geometricPrecision; image-rendering:optimizeQuality; fill-rule:evenodd; clip-rule:evenodd" xmlns:xlink="http://www.w3.org/1999/xlink">
<g><path style="opacity:1" fill="#a7aaad" d="M -0.5,-0.5 C 4.5,-0.5 9.5,-0.5 14.5,-0.5C 15.0916,2.12717 15.4249,4.79384 15.5,7.5C 12.8333,7.5 10.1667,7.5 7.5,7.5C 7.5,126.167 7.5,244.833 7.5,363.5C 168.833,363.5 330.167,363.5 491.5,363.5C 491.5,244.833 491.5,126.167 491.5,7.5C 487.5,7.5 483.5,7.5 479.5,7.5C 480.092,4.87283 480.425,2.20616 480.5,-0.5C 486.833,-0.5 493.167,-0.5 499.5,-0.5C 499.5,123.5 499.5,247.5 499.5,371.5C 332.833,371.5 166.167,371.5 -0.5,371.5C -0.5,247.5 -0.5,123.5 -0.5,-0.5 Z"/></g>
<g><path style="opacity:1" fill="#a1a3aa" d="M 14.5,-0.5 C 169.833,-0.5 325.167,-0.5 480.5,-0.5C 480.425,2.20616 480.092,4.87283 479.5,7.5C 324.833,7.5 170.167,7.5 15.5,7.5C 15.4249,4.79384 15.0916,2.12717 14.5,-0.5 Z"/></g>
<g><path style="opacity:1" fill="#fdfdfd" d="M 15.5,7.5 C 170.167,7.5 324.833,7.5 479.5,7.5C 483.5,7.5 487.5,7.5 491.5,7.5C 491.5,126.167 491.5,244.833 491.5,363.5C 330.167,363.5 168.833,363.5 7.5,363.5C 7.5,244.833 7.5,126.167 7.5,7.5C 10.1667,7.5 12.8333,7.5 15.5,7.5 Z"/></g>
<g><path style="opacity:1" fill="#e7ece6" d="M 14.5,14.5 C 14.5,14.8333 14.5,15.1667 14.5,15.5C 14.8333,127.502 14.5,239.502 13.5,351.5C 13.1667,295.333 12.8333,239.167 12.5,183C 12.5,126.496 13.1667,70.3293 14.5,14.5 Z"/></g>
<g><path style="opacity:1" fill="#a3a3a3" d="M 491.5,363.5 C 492.333,245.001 492.833,126.334 493,7.5C 493.101,10.6996 493.768,13.6996 495,16.5C 495.667,133.5 495.667,250.5 495,367.5C 493.333,367.167 491.667,366.833 490,366.5C 489,367.167 488,367.833 487,368.5C 330.333,367.167 173.667,367.167 17,368.5C 14.4296,366.053 11.263,364.887 7.5,365C 169.001,364.833 330.334,364.333 491.5,363.5 Z"/></g>
<g><path style="opacity:1" fill="#f5f5f5" d="M 311.5,23.5 C 310.844,24.2778 310.011,24.9444 309,25.5C 304.323,26.0241 299.823,27.1908 295.5,29C 292.183,29.4983 288.85,29.665 285.5,29.5C 285.5,28.5 285.5,27.5 285.5,26.5C 283.064,26.317 280.897,26.9837 279,28.5C 278.626,27.5838 278.126,26.7504 277.5,26C 275.555,26.1282 273.722,25.9615 272,25.5C 269.275,27.7577 266.275,28.0911 263,26.5C 261.194,28.9519 259.694,28.6186 258.5,25.5C 257.667,26.5 256.833,27.5 256,28.5C 253.4,27.4074 250.734,27.4074 248,28.5C 244.992,28.2543 242.326,27.2543 240,25.5C 239.667,26.1667 239.333,26.8333 239,27.5C 233.989,27.9473 228.989,27.2806 224,25.5C 222.135,25.7055 220.468,26.3722 219,27.5C 217.739,27.2409 216.739,26.5742 216,25.5C 214.418,27.7112 212.251,29.0446 209.5,29.5C 201.045,25.4014 192.545,25.0681 184,28.5C 182.715,28.0496 181.548,27.3829 180.5,26.5C 179.833,27.1667 179.167,27.8333 178.5,28.5C 178.003,26.784 177.669,25.1173 177.5,23.5C 176.636,25.1965 175.303,26.3632 173.5,27C 171.236,27.2362 169.069,27.7362 167,28.5C 164.667,27.1667 162.333,27.1667 160,28.5C 159.517,27.552 159.351,26.552 159.5,25.5C 157.876,25.6399 156.71,24.9733 156,23.5C 155.703,26.864 153.869,28.1974 150.5,27.5C 144.254,26.3123 138.088,25.6456 132,25.5C 131.5,25.8333 131,26.1667 130.5,26.5C 131.326,27.451 131.492,28.451 131,29.5C 128.595,29.036 126.095,28.8693 123.5,29C 121.508,28.4257 120.008,27.259 119,25.5C 116.667,28.1667 114.333,28.1667 112,25.5C 108.406,26.3267 104.739,26.9933 101,27.5C 98.4778,26.9824 96.4778,25.6491 95,23.5C 93.437,24.1021 93.6037,24.9354 95.5,26C 94.8333,26.3333 94.1667,26.6667 93.5,27C 88.5821,27.1948 83.7488,27.6948 79,28.5C 77.3149,26.9825 75.8149,25.3159 74.5,23.5C 74.1203,25.0207 73.9536,26.6874 74,28.5C 71.995,26.1996 69.8283,26.1996 67.5,28.5C 64.623,27.657 62.4563,25.9903 61,23.5C 60.4115,25.8633 58.9115,26.8633 56.5,26.5C 56.5,24.8333 56.5,23.1667 56.5,21.5C 59.9,20.0138 63.2333,20.1805 66.5,22C 66.9302,22.9195 67.2635,23.7528 67.5,24.5C 73.6155,22.211 79.4489,20.211 85,18.5C 92.9548,22.7825 101.288,23.4491 110,20.5C 116.256,20.7937 122.256,21.7937 128,23.5C 130.061,19.5621 132.227,19.5621 134.5,23.5C 136.793,22.2945 139.293,21.6278 142,21.5C 147.827,22.2729 153.661,22.4395 159.5,22C 161.702,20.232 164.035,19.0654 166.5,18.5C 169.519,21.461 173.019,22.461 177,21.5C 179.136,22.2677 181.303,22.9344 183.5,23.5C 185.808,22.0987 188.308,21.0987 191,20.5C 195.289,22.4751 199.456,22.4751 203.5,20.5C 204.748,21.0402 205.915,21.7069 207,22.5C 211.098,21.4415 215.265,21.4415 219.5,22.5C 221.486,22.2132 223.32,21.5465 225,20.5C 231.781,22.9045 238.615,23.0712 245.5,21C 246.667,20.5 247.5,19.6667 248,18.5C 253.653,21.2478 259.653,22.9144 266,23.5C 268.692,22.9013 271.192,21.9013 273.5,20.5C 276.068,21.5589 278.235,23.2256 280,25.5C 281.688,23.8116 283.355,22.1449 285,20.5C 294.192,20.7875 303.026,21.7875 311.5,23.5 Z"/></g>
<g><path style="opacity:1" fill="#f5f5f5" d="M 311.5,23.5 C 312.695,23.6775 313.862,24.0109 315,24.5C 319.533,22.6923 323.867,20.6923 328,18.5C 329.38,21.0578 330.88,21.0578 332.5,18.5C 333.705,20.1376 335.038,20.4709 336.5,19.5C 339.867,21.3775 343.534,22.3775 347.5,22.5C 357.353,21.9023 367.186,21.2357 377,20.5C 379.53,21.0942 381.53,22.4276 383,24.5C 385.532,23.8811 387.865,22.8811 390,21.5C 398.711,23.2859 407.045,22.2859 415,18.5C 415.5,19.6667 416.333,20.5 417.5,21C 422.493,21.965 427.493,22.7983 432.5,23.5C 436.736,19.7903 441.069,19.6236 445.5,23C 444.833,23.3333 444.167,23.6667 443.5,24C 444.793,24.49 446.127,24.6567 447.5,24.5C 447.5,23.5 447.5,22.5 447.5,21.5C 453.519,20.982 459.352,21.6487 465,23.5C 467.272,22.0183 469.772,21.0183 472.5,20.5C 474.107,20.637 475.441,21.3036 476.5,22.5C 475.538,24.8833 476.538,25.8833 479.5,25.5C 479.063,29.3285 478.896,32.9952 479,36.5C 478.751,35.376 478.251,34.376 477.5,33.5C 476.22,35.7244 476.553,37.7244 478.5,39.5C 479.664,45.4724 479.83,51.4724 479,57.5C 478.667,57.1667 478.333,56.8333 478,56.5C 477.833,57.5 477.667,58.5 477.5,59.5C 479.068,60.8249 479.735,63.1582 479.5,66.5C 479.276,70.7384 478.943,75.0718 478.5,79.5C 479.308,84.3759 480.308,89.2092 481.5,94C 481,95.5 480.5,97 480,98.5C 479.282,97.5494 478.449,97.3828 477.5,98C 478.804,98.804 479.471,99.9707 479.5,101.5C 477.578,107.857 477.578,114.023 479.5,120C 479.569,122.907 478.569,125.24 476.5,127C 477.448,127.483 478.448,127.649 479.5,127.5C 479.5,135.5 479.5,143.5 479.5,151.5C 476.203,151.329 475.869,151.995 478.5,153.5C 479.997,158.191 479.664,162.691 477.5,167C 478.286,170.436 478.953,173.936 479.5,177.5C 479.471,179.029 478.804,180.196 477.5,181C 478.449,181.617 479.282,181.451 480,180.5C 480.908,188.628 479.742,196.461 476.5,204C 480.453,209.189 480.453,214.355 476.5,219.5C 480.5,227.5 480.5,235.5 476.5,243.5C 478.746,247.15 479.746,251.15 479.5,255.5C 478.325,255.281 477.325,255.614 476.5,256.5C 479.422,264.938 480.588,273.605 480,282.5C 479.282,281.549 478.449,281.383 477.5,282C 478.944,283.126 479.61,284.626 479.5,286.5C 479.139,294.806 478.972,303.14 479,311.5C 478.717,308.258 477.883,307.924 476.5,310.5C 477.145,311.646 477.978,312.646 479,313.5C 479.491,324.626 479.324,335.626 478.5,346.5C 477.387,348.031 475.887,349.031 474,349.5C 472.893,349.415 471.893,349.081 471,348.5C 469.759,350.421 468.259,350.754 466.5,349.5C 470.081,348.644 470.247,347.644 467,346.5C 464.495,347.155 463.161,348.822 463,351.5C 462.311,350.643 461.478,349.977 460.5,349.5C 458.929,350.309 457.262,350.643 455.5,350.5C 455.798,347.664 455.131,347.164 453.5,349C 449.294,349.261 445.127,349.761 441,350.5C 437.258,350.185 433.758,349.185 430.5,347.5C 426.616,348.841 422.616,349.675 418.5,350C 418.833,350.333 419.167,350.667 419.5,351C 416.47,351.288 413.636,351.455 411,351.5C 410.667,350.167 410.333,348.833 410,347.5C 408.262,348.127 406.429,348.46 404.5,348.5C 402.359,348.387 400.525,347.72 399,346.5C 394.06,349.225 388.894,350.225 383.5,349.5C 386.597,348.806 386.931,347.806 384.5,346.5C 383.354,347.145 382.354,347.978 381.5,349C 375.843,349.499 370.176,349.666 364.5,349.5C 364.5,348.5 364.5,347.5 364.5,346.5C 358.627,346.598 358.294,347.598 363.5,349.5C 362.833,349.833 362.167,350.167 361.5,350.5C 355.196,348.918 348.863,348.585 342.5,349.5C 340.311,349.406 338.311,348.739 336.5,347.5C 334.279,350.739 331.279,351.906 327.5,351C 330.742,350.717 331.076,349.883 328.5,348.5C 324.203,349.943 320.037,349.609 316,347.5C 312.332,349.722 308.498,350.056 304.5,348.5C 303.833,349.167 303.167,349.833 302.5,350.5C 301.452,349.617 300.285,348.95 299,348.5C 292.695,351.266 286.695,350.6 281,346.5C 277.754,348.469 274.42,350.135 271,351.5C 270.32,349.487 268.987,348.154 267,347.5C 262.787,348.736 258.62,349.236 254.5,349C 254.957,349.414 255.291,349.914 255.5,350.5C 253.833,350.833 252.167,351.167 250.5,351.5C 245.677,350.884 241.01,349.884 236.5,348.5C 231.519,349.165 226.519,349.498 221.5,349.5C 221.5,348.5 221.5,347.5 221.5,346.5C 220.127,346.343 218.793,346.51 217.5,347C 217.619,348.281 217.119,349.448 216,350.5C 212.534,349.798 209.034,349.131 205.5,348.5C 202.925,351.319 201.092,350.986 200,347.5C 198.913,349.932 198.413,349.598 198.5,346.5C 195.5,346.167 194.167,347.5 194.5,350.5C 190.337,350.347 186.504,349.347 183,347.5C 180.204,348.211 177.37,348.878 174.5,349.5C 173.914,349.291 173.414,348.957 173,348.5C 173.077,349.738 172.911,350.738 172.5,351.5C 170.596,350.74 168.596,350.74 166.5,351.5C 161.706,349.899 156.873,348.566 152,347.5C 149.507,347.451 147.007,348.285 144.5,350C 141.518,350.498 138.518,350.665 135.5,350.5C 135.351,349.448 135.517,348.448 136,347.5C 140.635,348.499 140.635,348.166 136,346.5C 134.831,347.009 133.998,347.842 133.5,349C 128.493,350.406 123.493,350.572 118.5,349.5C 118.5,348.5 118.5,347.5 118.5,346.5C 116.5,346.5 114.5,346.5 112.5,346.5C 112.5,347.5 112.5,348.5 112.5,349.5C 104.737,348.856 97.0699,348.523 89.5,348.5C 89.719,349.675 89.3857,350.675 88.5,351.5C 85.6669,351.418 82.6669,351.252 79.5,351C 76.7086,349.382 73.7086,348.215 70.5,347.5C 64.9989,350.421 59.8323,350.088 55,346.5C 51.6109,347.835 48.2775,349.168 45,350.5C 41.8648,351.137 38.8648,350.471 36,348.5C 34.7147,348.95 33.548,349.617 32.5,350.5C 31.8333,349.833 31.1667,349.167 30.5,348.5C 28.2534,349.374 25.9201,349.708 23.5,349.5C 22.1804,346.507 20.8471,343.507 19.5,340.5C 19.3898,338.626 20.0564,337.126 21.5,336C 19.5186,328.993 19.0186,321.826 20,314.5C 20.956,313.421 21.7894,312.255 22.5,311C 20.0593,308.347 19.0593,305.18 19.5,301.5C 21.5721,293.44 20.9055,285.44 17.5,277.5C 19.0482,271.543 20.3815,265.543 21.5,259.5C 19.8348,254.599 19.3348,249.599 20,244.5C 21.0674,243.809 22.2341,243.309 23.5,243C 22.552,242.517 21.552,242.351 20.5,242.5C 19.4611,236.203 19.2944,229.87 20,223.5C 20.6368,221.697 21.8035,220.364 23.5,219.5C 21.8035,218.636 20.6368,217.303 20,215.5C 19.5187,211.41 20.0187,207.41 21.5,203.5C 19.9402,197.312 18.6069,191.312 17.5,185.5C 21.6235,175.817 21.9568,166.151 18.5,156.5C 19.6477,154.851 20.981,153.351 22.5,152C 21.552,151.517 20.552,151.351 19.5,151.5C 19.3337,144.492 19.5004,137.492 20,130.5C 20.3176,128.939 21.1509,127.772 22.5,127C 20.0593,124.347 19.0593,121.18 19.5,117.5C 21.5721,109.44 20.9055,101.44 17.5,93.5C 18.0864,88.2163 19.4197,82.883 21.5,77.5C 19.2508,71.8626 19.0841,66.1959 21,60.5C 21.8928,61.7112 22.7261,61.7112 23.5,60.5C 20.0128,57.1404 18.6795,52.9738 19.5,48C 19.6667,45.1667 19.8333,42.3333 20,39.5C 20.8333,38 22,36.8333 23.5,36C 20.0823,35.5107 18.7489,33.5107 19.5,30C 19.8333,28.5 20.1667,27 20.5,25.5C 21.1667,25.8333 21.8333,26.1667 22.5,26.5C 23.4519,24.9547 23.7852,23.288 23.5,21.5C 28.6953,22.4613 33.6953,22.128 38.5,20.5C 42.3197,21.7992 46.1531,21.7992 50,20.5C 51.6629,22.3284 53.4962,23.9951 55.5,25.5C 51.8358,27.8325 47.8358,29.1658 43.5,29.5C 39.0496,28.6758 34.7163,27.6758 30.5,26.5C 28.8333,26.8333 27.1667,27.1667 25.5,27.5C 24.7366,28.7193 23.7366,29.7193 22.5,30.5C 24.1932,36.1851 25.5266,42.0184 26.5,48C 25.0421,53.8927 24.0421,59.8927 23.5,66C 23.6148,67.8951 24.2815,69.5618 25.5,71C 25.2257,87.0916 24.8923,103.258 24.5,119.5C 21.6644,119.202 21.1644,119.869 23,121.5C 24.2793,126.179 24.6126,130.846 24,135.5C 24.4512,133.071 25.2845,132.904 26.5,135C 26.1667,135.333 25.8333,135.667 25.5,136C 28.1667,138.333 28.1667,140.667 25.5,143C 26.6537,143.914 26.487,144.747 25,145.5C 24.4444,143.405 23.9444,143.238 23.5,145C 24.5267,150.348 23.86,155.514 21.5,160.5C 24.0334,162.394 25.7001,164.894 26.5,168C 23.8333,170.333 23.8333,172.667 26.5,175C 25.376,175.249 24.376,175.749 23.5,176.5C 24.6113,177.611 25.278,178.945 25.5,180.5C 24.9356,183.012 24.9356,185.679 25.5,188.5C 25.2105,190.952 24.5438,193.285 23.5,195.5C 23.9186,196.672 24.5853,197.672 25.5,198.5C 24.8877,199.995 24.8877,201.662 25.5,203.5C 24.357,206.006 23.6903,208.672 23.5,211.5C 24.1325,218.061 25.1325,224.561 26.5,231C 26.4684,233.895 25.4684,236.395 23.5,238.5C 24.715,242.306 24.715,246.139 23.5,250C 23.6148,251.895 24.2815,253.562 25.5,255C 25.2161,271.133 24.8828,287.3 24.5,303.5C 21.6644,303.202 21.1644,303.869 23,305.5C 24.8013,311.373 25.9679,317.373 26.5,323.5C 25.0159,328.769 23.8493,334.102 23,339.5C 22.5,340 22,340.5 21.5,341C 22.6184,342.074 23.6184,343.24 24.5,344.5C 26.6168,343.468 28.7835,343.468 31,344.5C 35.2396,343.809 39.4062,342.809 43.5,341.5C 47.9555,343.447 52.6222,344.447 57.5,344.5C 63.1587,343.697 68.8253,343.53 74.5,344C 73.3044,344.654 73.3044,345.154 74.5,345.5C 80.656,343.468 86.9894,342.968 93.5,344C 94.8985,346.562 96.5652,346.895 98.5,345C 97.5,344.667 96.5,344.333 95.5,344C 100.524,343.018 105.357,343.518 110,345.5C 113.379,344.239 116.712,344.239 120,345.5C 122.873,340.096 126.706,339.263 131.5,343C 129.071,343.451 128.904,344.285 131,345.5C 131.956,344.106 133.289,343.439 135,343.5C 140.817,344.578 146.65,344.578 152.5,343.5C 154.5,343.667 156.5,343.833 158.5,344C 152.231,344.936 152.565,345.769 159.5,346.5C 159.5,345.5 159.5,344.5 159.5,343.5C 166.345,342.832 172.845,343.832 179,346.5C 180.059,346.37 180.892,345.87 181.5,345C 180.167,344.667 178.833,344.333 177.5,344C 179.833,343.833 182.167,343.667 184.5,343.5C 189.534,344.313 194.534,344.313 199.5,343.5C 201.481,343.437 203.148,344.104 204.5,345.5C 205.604,344.369 205.271,343.535 203.5,343C 207.111,339.605 210.444,339.772 213.5,343.5C 219.463,345.359 225.297,345.359 231,343.5C 233.982,343.751 236.648,344.751 239,346.5C 240.28,346.387 241.113,345.72 241.5,344.5C 243.667,344.167 245.833,343.833 248,343.5C 260.199,343.733 272.366,343.733 284.5,343.5C 285.647,343.818 286.481,344.484 287,345.5C 287.49,344.207 287.657,342.873 287.5,341.5C 293.081,341.969 298.581,342.969 304,344.5C 313.886,344.593 323.72,344.26 333.5,343.5C 335.5,343.667 337.5,343.833 339.5,344C 340.676,345.914 341.676,345.748 342.5,343.5C 343.192,344.025 343.692,344.692 344,345.5C 348.387,342.858 352.887,342.858 357.5,345.5C 363.636,343.574 369.803,341.907 376,340.5C 377.34,341.868 378.674,343.201 380,344.5C 380.873,344.265 381.707,343.931 382.5,343.5C 385.603,343.923 388.436,344.923 391,346.5C 395.475,343.823 400.309,342.99 405.5,344C 404.062,344.219 402.729,344.719 401.5,345.5C 403.724,346.78 405.724,346.447 407.5,344.5C 412.792,343.505 418.125,343.172 423.5,343.5C 423.5,344.5 423.5,345.5 423.5,346.5C 429.176,346.053 429.509,345.219 424.5,344C 429.5,343.333 434.5,343.333 439.5,344C 438.112,344.889 438.278,345.389 440,345.5C 444.163,344.059 448.329,343.559 452.5,344C 451.167,343.333 451.167,342.667 452.5,342C 456.025,340.173 458.859,341.006 461,344.5C 461.561,343.978 462.228,343.645 463,343.5C 466.901,344.479 470.734,345.312 474.5,346C 473.672,345.085 472.672,344.419 471.5,344C 473.5,343.667 475.5,343.333 477.5,343C 474.65,338.363 474.317,333.696 476.5,329C 476.167,328.5 475.833,328 475.5,327.5C 474.346,329.856 473.013,330.023 471.5,328C 472.308,327.692 472.975,327.192 473.5,326.5C 472.833,325.5 472.167,324.5 471.5,323.5C 473.922,321.714 473.922,320.048 471.5,318.5C 472.325,317.614 473.325,317.281 474.5,317.5C 473.595,312.474 473.928,307.474 475.5,302.5C 474.261,300.689 473.594,298.689 473.5,296.5C 474.522,293.787 474.522,291.12 473.5,288.5C 474.025,287.808 474.692,287.308 475.5,287C 473.213,285.573 472.88,283.739 474.5,281.5C 473.975,280.808 473.308,280.308 472.5,280C 473.512,275.1 474.846,270.267 476.5,265.5C 472.736,259.698 472.736,253.864 476.5,248C 474.464,245.701 474.131,243.201 475.5,240.5C 473.914,237.422 472.58,234.256 471.5,231C 472.716,229.406 474.049,227.906 475.5,226.5C 474.305,221.85 474.305,217.017 475.5,212C 472.5,206.866 472.833,202.032 476.5,197.5C 474.966,192.699 473.632,187.866 472.5,183C 474.658,182.041 474.991,180.541 473.5,178.5C 473.818,177.353 474.484,176.519 475.5,176C 473.883,170.567 473.549,165.067 474.5,159.5C 475.552,159.649 476.552,159.483 477.5,159C 472.893,154.428 472.56,149.428 476.5,144C 475.258,143.689 474.258,144.189 473.5,145.5C 472.167,141.5 472.167,137.5 473.5,133.5C 474.258,134.811 475.258,135.311 476.5,135C 472.56,129.572 472.893,124.572 477.5,120C 476.552,119.517 475.552,119.351 474.5,119.5C 473.058,113.878 473.391,108.378 475.5,103C 473.213,101.573 472.88,99.7394 474.5,97.5C 473.975,96.8076 473.308,96.3076 472.5,96C 473.632,91.134 474.966,86.3007 476.5,81.5C 474.679,79.5247 473.679,77.1914 473.5,74.5C 474.089,67.4695 474.756,60.4695 475.5,53.5C 474.167,51.8333 472.833,50.1667 471.5,48.5C 473.844,43.1433 475.178,37.4766 475.5,31.5C 475.229,28.0622 473.395,26.0622 470,25.5C 465.114,25.5669 460.447,26.9003 456,29.5C 454.029,29.5317 452.529,28.6984 451.5,27C 444.635,25.5851 437.968,25.7517 431.5,27.5C 429.173,26.9182 427.006,26.9182 425,27.5C 424.055,27.0946 423.388,26.428 423,25.5C 416.567,29.1148 410.067,29.1148 403.5,25.5C 401.808,26.9686 399.808,27.6353 397.5,27.5C 395.191,26.9227 393.024,26.9227 391,27.5C 390.196,26.1955 389.029,25.5288 387.5,25.5C 383.357,27.2884 379.024,28.6218 374.5,29.5C 368.822,29.2195 363.155,27.8862 357.5,25.5C 354.453,25.9678 351.619,26.9678 349,28.5C 348.044,27.1059 346.711,26.4393 345,26.5C 336.477,28.1562 328.143,27.8229 320,25.5C 317.453,27.1775 314.62,27.8441 311.5,27.5C 311.5,26.1667 311.5,24.8333 311.5,23.5 Z"/></g>
<g><path style="opacity:1" fill="#c5c5c5" d="M 225.5,316.5 C 227.086,317.413 228.586,317.413 230,316.5C 230.249,317.624 230.749,318.624 231.5,319.5C 233.833,316.833 236.167,316.833 238.5,319.5C 239.696,319.154 239.696,318.654 238.5,318C 241.095,317.774 243.595,317.274 246,316.5C 246.333,317.167 246.667,317.833 247,318.5C 247.718,317.549 248.551,317.383 249.5,318C 248.663,319.011 248.33,320.178 248.5,321.5C 246.43,321.449 244.597,322.115 243,323.5C 237.352,321.649 231.519,320.982 225.5,321.5C 225.5,319.833 225.5,318.167 225.5,316.5 Z"/></g>
<g><path style="opacity:1" fill="#dadada" d="M 261.5,309.5 C 261.833,309.5 262.167,309.5 262.5,309.5C 262.263,310.791 262.596,311.791 263.5,312.5C 263.64,314.124 262.973,315.29 261.5,316C 263.134,316.494 264.801,316.66 266.5,316.5C 266.275,320.056 267.108,320.39 269,317.5C 270.15,318.424 271.15,318.424 272,317.5C 272.49,318.793 272.657,320.127 272.5,321.5C 266.833,321.5 261.167,321.5 255.5,321.5C 255.859,319.234 255.192,317.401 253.5,316C 254.308,315.692 254.975,315.192 255.5,314.5C 254.051,313.828 252.718,313.161 251.5,312.5C 252.239,312.631 252.906,312.464 253.5,312C 252.269,310.817 252.269,309.651 253.5,308.5C 254.429,309.689 254.762,311.022 254.5,312.5C 256.766,312.859 258.599,312.192 260,310.5C 261.087,312.932 261.587,312.598 261.5,309.5 Z"/></g>
<g><path style="opacity:1" fill="#a7a7a7" d="M 273.5,308.5 C 275.331,309.052 276.997,309.052 278.5,308.5C 279.452,310.045 279.785,311.712 279.5,313.5C 276.287,313.81 273.287,313.477 270.5,312.5C 272.912,312.306 273.912,310.973 273.5,308.5 Z"/></g>
<g><path style="opacity:1" fill="#6d6d6d" d="M 223.5,308.5 C 227.886,308.974 232.219,308.974 236.5,308.5C 236.351,309.552 236.517,310.552 237,311.5C 237.71,310.027 238.876,309.36 240.5,309.5C 240.5,310.5 240.5,311.5 240.5,312.5C 239.778,312.082 239.278,311.416 239,310.5C 237.302,311.733 235.302,312.4 233,312.5C 230.698,312.4 228.698,311.733 227,310.5C 226.29,311.973 225.124,312.64 223.5,312.5C 223.5,311.167 223.5,309.833 223.5,308.5 Z"/></g>
<g><path style="opacity:1" fill="#585858" d="M 223.5,308.5 C 221.674,313.907 220.674,313.574 220.5,307.5C 221.791,307.263 222.791,307.596 223.5,308.5 Z"/></g>
<g><path style="opacity:1" fill="#7c7c7c" d="M 263.5,312.5 C 262.596,311.791 262.263,310.791 262.5,309.5C 264.102,307.926 266.102,307.259 268.5,307.5C 268.5,309.167 268.5,310.833 268.5,312.5C 266.833,312.5 265.167,312.5 263.5,312.5 Z"/></g>
<g><path style="opacity:1" fill="#686868" d="M 261.5,309.5 C 261.587,312.598 261.087,312.932 260,310.5C 258.599,312.192 256.766,312.859 254.5,312.5C 254.762,311.022 254.429,309.689 253.5,308.5C 252.269,309.651 252.269,310.817 253.5,312C 252.906,312.464 252.239,312.631 251.5,312.5C 251.5,310.833 251.5,309.167 251.5,307.5C 253.936,307.317 256.103,307.984 258,309.5C 259.84,307.51 261.007,307.51 261.5,309.5 Z"/></g>
<g><path style="opacity:1" fill="#969696" d="M 245.5,312.5 C 247.557,310.957 247.557,309.957 245.5,309.5C 246.452,308.548 247.452,307.548 248.5,306.5C 249.833,308.5 249.833,310.5 248.5,312.5C 247.313,313.653 246.313,313.653 245.5,312.5 Z"/></g>
<g><path style="opacity:1" fill="#5a5a5a" d="M 244.5,309.5 C 244.833,309.5 245.167,309.5 245.5,309.5C 247.557,309.957 247.557,310.957 245.5,312.5C 244.167,312.5 242.833,312.5 241.5,312.5C 241.413,309.402 241.913,309.068 243,311.5C 243.278,310.584 243.778,309.918 244.5,309.5 Z"/></g>
<g><path style="opacity:1" fill="#5a5a5a" d="M 273.5,308.5 C 273.912,310.973 272.912,312.306 270.5,312.5C 270.5,310.833 270.5,309.167 270.5,307.5C 271.791,307.263 272.791,307.596 273.5,308.5 Z"/></g>
<g><path style="opacity:1" fill="#a3a3a3" d="M 236.5,308.5 C 239.385,308.194 242.052,308.527 244.5,309.5C 243.778,309.918 243.278,310.584 243,311.5C 241.913,309.068 241.413,309.402 241.5,312.5C 241.167,312.5 240.833,312.5 240.5,312.5C 240.5,311.5 240.5,310.5 240.5,309.5C 238.876,309.36 237.71,310.027 237,311.5C 236.517,310.552 236.351,309.552 236.5,308.5 Z"/></g>
<g><path style="opacity:1" fill="#d3d3d3" d="M 250.5,287.5 C 251.09,289.99 251.257,292.657 251,295.5C 252.188,294.437 252.688,293.103 252.5,291.5C 254.143,291.48 255.476,292.147 256.5,293.5C 257.167,292.167 257.833,290.833 258.5,289.5C 259.893,290.863 261.559,291.696 263.5,292C 256.954,295.106 250.287,297.939 243.5,300.5C 236.972,297.798 236.972,294.798 243.5,291.5C 243.833,291.833 244.167,292.167 244.5,292.5C 242.022,293.722 241.022,295.722 241.5,298.5C 244.177,296.942 246.677,294.942 249,292.5C 249.608,290.846 250.108,289.179 250.5,287.5 Z"/></g>
<g><path style="opacity:1" fill="#8e8e8e" d="M 317.5,255.5 C 318.859,256.007 319.859,257.007 320.5,258.5C 322.5,258.167 324.5,257.833 326.5,257.5C 326.833,257.833 327.167,258.167 327.5,258.5C 325.98,259.85 325.313,261.183 325.5,262.5C 324.281,261.737 323.281,260.737 322.5,259.5C 321.289,260.274 321.289,261.107 322.5,262C 316.065,262.589 309.899,262.423 304,261.5C 303.443,259.414 304.276,258.081 306.5,257.5C 307.598,258.615 308.765,258.615 310,257.5C 310.945,257.905 311.612,258.572 312,259.5C 313.667,256.833 315.333,256.833 317,259.5C 317.49,258.207 317.657,256.873 317.5,255.5 Z"/></g>
<g><path style="opacity:1" fill="#4a4a4a" d="M 292.5,254.5 C 293.675,254.281 294.675,254.614 295.5,255.5C 292.857,256.851 292.857,259.018 295.5,262C 293.609,262.309 292.275,261.475 291.5,259.5C 290.289,260.274 290.289,261.107 291.5,262C 290.552,262.483 289.552,262.649 288.5,262.5C 289.683,259.852 291.016,257.185 292.5,254.5 Z"/></g>
<g><path style="opacity:1" fill="#747474" d="M 197.5,257.5 C 198.268,258.263 198.768,259.263 199,260.5C 200.553,256.701 201.886,256.701 203,260.5C 205.552,257.806 206.719,258.473 206.5,262.5C 203.167,262.5 199.833,262.5 196.5,262.5C 196.366,260.708 196.699,259.042 197.5,257.5 Z"/></g>
<g><path style="opacity:1" fill="#5c5c5c" d="M 174.5,255.5 C 175.108,257.602 175.442,259.769 175.5,262C 173.866,262.494 172.199,262.66 170.5,262.5C 170.238,261.022 170.571,259.689 171.5,258.5C 172.192,259.025 172.692,259.692 173,260.5C 173.608,258.846 174.108,257.179 174.5,255.5 Z"/></g>
<g><path style="opacity:1" fill="#303030" d="M 265.5,262.5 C 264.929,261.027 264.929,259.36 265.5,257.5C 266.077,256.227 266.743,256.227 267.5,257.5C 266.972,259.336 266.306,261.003 265.5,262.5 Z"/></g>
<g><path style="opacity:1" fill="#6f6f6f" d="M 221.5,260.5 C 221.5,261.167 221.5,261.833 221.5,262.5C 217.982,261.895 214.315,261.895 210.5,262.5C 210.947,256.824 211.781,256.491 213,261.5C 213.873,256.608 215.539,256.275 218,260.5C 218.862,258.913 219.529,257.246 220,255.5C 220.198,257.382 220.698,259.048 221.5,260.5 Z"/></g>
<g><path style="opacity:1" fill="#858585" d="M 178.5,257.5 C 179.75,257.577 180.583,258.244 181,259.5C 182.011,258.663 183.178,258.33 184.5,258.5C 184.845,261.488 183.512,262.821 180.5,262.5C 175.982,262.323 175.315,260.656 178.5,257.5 Z"/></g>
<g><path style="opacity:1" fill="#919191" d="M 299.5,258.5 C 300.5,258.5 301.5,258.5 302.5,258.5C 302.426,262.541 301.093,263.208 298.5,260.5C 298.863,259.817 299.196,259.15 299.5,258.5 Z"/></g>
<g><path style="opacity:1" fill="#3f3f3f" d="M 273.5,258.5 C 274.281,260.628 275.281,260.795 276.5,259C 280.827,257.779 281.66,258.946 279,262.5C 278.389,258.728 277.389,258.728 276,262.5C 274.294,261.692 273.461,260.359 273.5,258.5 Z"/></g>
<g><path style="opacity:1" fill="#5b5b5b" d="M 256.5,255.5 C 257.029,257.771 257.362,260.104 257.5,262.5C 255.482,261.377 253.482,261.377 251.5,262.5C 249.748,259.167 250.748,257.501 254.5,257.5C 254.351,258.552 254.517,259.552 255,260.5C 255.352,258.753 255.852,257.086 256.5,255.5 Z"/></g>
<g><path style="opacity:1" fill="#939393" d="M 246.5,258.5 C 247.995,258.415 248.995,259.081 249.5,260.5C 248.68,262.111 247.346,262.778 245.5,262.5C 245.433,261.041 245.766,259.708 246.5,258.5 Z"/></g>
<g><path style="opacity:1" fill="#252525" d="M 226.5,255.5 C 226.634,257.292 226.301,258.958 225.5,260.5C 225.073,263.041 224.74,262.874 224.5,260C 224.525,258.124 225.191,256.624 226.5,255.5 Z"/></g>
<g><path style="opacity:1" fill="#161616" d="M 221.5,262.5 C 221.5,261.833 221.5,261.167 221.5,260.5C 221.351,259.448 221.517,258.448 222,257.5C 222.654,256.304 223.154,256.304 223.5,257.5C 222.972,259.336 222.306,261.003 221.5,262.5 Z"/></g>
<g><path style="opacity:1" fill="#383838" d="M 162.5,258.5 C 163.376,258.369 164.043,258.702 164.5,259.5C 162.993,263.355 162.326,263.021 162.5,258.5 Z"/></g>
<g><path style="opacity:1" fill="#3d3d3d" d="M 282.5,259.5 C 282.56,258.957 282.893,258.624 283.5,258.5C 284.583,259.365 284.749,260.365 284,261.5C 283.722,260.584 283.222,259.918 282.5,259.5 Z"/></g>
<g><path style="opacity:1" fill="#bfbfbf" d="M 256.5,255.5 C 257.209,254.596 258.209,254.263 259.5,254.5C 259.5,255.5 259.5,256.5 259.5,257.5C 261.5,257.5 263.5,257.5 265.5,257.5C 264.929,259.36 264.929,261.027 265.5,262.5C 264.833,262.5 264.167,262.5 263.5,262.5C 263.79,258.446 263.123,257.946 261.5,261C 262.056,261.383 262.389,261.883 262.5,262.5C 261.833,262.5 261.167,262.5 260.5,262.5C 260.79,258.446 260.123,257.946 258.5,261C 259.056,261.383 259.389,261.883 259.5,262.5C 258.833,262.5 258.167,262.5 257.5,262.5C 257.362,260.104 257.029,257.771 256.5,255.5 Z"/></g>
<g><path style="opacity:1" fill="#2c2c2c" d="M 263.5,262.5 C 263.167,262.5 262.833,262.5 262.5,262.5C 262.389,261.883 262.056,261.383 261.5,261C 263.123,257.946 263.79,258.446 263.5,262.5 Z"/></g>
<g><path style="opacity:1" fill="#313131" d="M 260.5,262.5 C 260.167,262.5 259.833,262.5 259.5,262.5C 259.389,261.883 259.056,261.383 258.5,261C 260.123,257.946 260.79,258.446 260.5,262.5 Z"/></g>
<g><path style="opacity:1" fill="#bfbfbf" d="M 236.5,256.5 C 236.56,255.957 236.893,255.624 237.5,255.5C 238.85,256.95 240.516,257.617 242.5,257.5C 243.167,261.5 241.5,263.167 237.5,262.5C 237.223,260.425 236.89,258.425 236.5,256.5 Z"/></g>
<g><path style="opacity:1" fill="#515151" d="M 236.5,256.5 C 236.89,258.425 237.223,260.425 237.5,262.5C 235.833,262.5 234.167,262.5 232.5,262.5C 232.433,260.599 232.767,258.766 233.5,257C 233.85,255.743 234.517,255.409 235.5,256C 234.446,257.388 234.28,258.888 235,260.5C 235.41,259.099 235.91,257.766 236.5,256.5 Z"/></g>
<g><path style="opacity:1" fill="#8a8a8a" d="M 190.5,257.5 C 194.527,257.26 195.861,258.926 194.5,262.5C 192.632,262.054 190.799,261.721 189,261.5C 188.7,259.934 189.2,258.601 190.5,257.5 Z"/></g>
<g><path style="opacity:1" fill="#393939" d="M 186.5,256.5 C 187.376,256.369 188.043,256.702 188.5,257.5C 186.17,263.892 185.504,263.559 186.5,256.5 Z"/></g>
<g><path style="opacity:1" fill="#686868" d="M 165.5,257.5 C 166.833,257.5 168.167,257.5 169.5,257.5C 169.785,259.288 169.452,260.955 168.5,262.5C 167.459,260.009 166.626,260.009 166,262.5C 165.506,260.866 165.34,259.199 165.5,257.5 Z"/></g>
<g><path style="opacity:1" fill="#6f6f6f" d="M 269.5,255.5 C 270.29,256.609 270.79,257.942 271,259.5C 271.333,259.167 271.667,258.833 272,258.5C 272.49,259.793 272.657,261.127 272.5,262.5C 271.167,262.5 269.833,262.5 268.5,262.5C 268.448,260.097 268.781,257.764 269.5,255.5 Z"/></g>
<g><path style="opacity:1" fill="#7b7b7b" d="M 225.5,260.5 C 226.301,258.958 226.634,257.292 226.5,255.5C 226.56,254.957 226.893,254.624 227.5,254.5C 230.167,257.167 230.167,259.833 227.5,262.5C 226.818,261.757 226.151,261.091 225.5,260.5 Z"/></g>
<g><path style="opacity:1" fill="#808080" d="M 352.5,246.5 C 350.816,245.289 348.983,245.289 347,246.5C 346.536,247.094 346.369,247.761 346.5,248.5C 344.55,248.923 342.55,249.256 340.5,249.5C 339.167,247.833 339.167,246.167 340.5,244.5C 341.192,245.025 341.692,245.692 342,246.5C 344.038,244.928 346.371,243.928 349,243.5C 350.359,244.365 351.526,245.365 352.5,246.5 Z"/></g>
<g><path style="opacity:1" fill="#353535" d="M 324.5,244.5 C 325.874,246.517 325.707,248.517 324,250.5C 323.583,249.244 322.75,248.577 321.5,248.5C 322.999,248.04 323.999,246.707 324.5,244.5 Z"/></g>
<g><path style="opacity:1" fill="#3b3b3b" d="M 346.5,248.5 C 346.369,247.761 346.536,247.094 347,246.5C 348.983,245.289 350.816,245.289 352.5,246.5C 352.517,244.972 353.184,244.472 354.5,245C 353.663,246.011 353.33,247.178 353.5,248.5C 351.167,248.5 348.833,248.5 346.5,248.5 Z"/></g>
<g><path style="opacity:1" fill="#444444" d="M 336.5,241.5 C 337.552,241.351 338.552,241.517 339.5,242C 338.086,245.055 336.919,248.222 336,251.5C 335.457,248.132 335.624,244.799 336.5,241.5 Z"/></g>
<g><path style="opacity:1" fill="#666666" d="M 329.5,244.5 C 330.75,244.577 331.583,245.244 332,246.5C 332.423,245.044 333.256,244.544 334.5,245C 331.592,250.84 329.925,250.674 329.5,244.5 Z"/></g>
<g><path style="opacity:1" fill="#838383" d="M 292.5,248.5 C 293.833,247.5 293.833,246.5 292.5,245.5C 292.811,244.522 293.478,243.855 294.5,243.5C 296.409,244.348 298.409,244.682 300.5,244.5C 300.459,248.243 301.126,248.41 302.5,245C 303.332,244.312 303.998,244.479 304.5,245.5C 303.494,246.396 303.494,247.062 304.5,247.5C 305.333,246.5 306.167,245.5 307,244.5C 306.852,245.825 307.018,246.992 307.5,248C 305.782,248.346 304.115,248.846 302.5,249.5C 298.938,249.49 295.604,249.157 292.5,248.5 Z"/></g>
<g><path style="opacity:1" fill="#4c4c4c" d="M 292.5,245.5 C 293.833,246.5 293.833,247.5 292.5,248.5C 291.5,248.5 290.5,248.5 289.5,248.5C 289.238,247.022 289.571,245.689 290.5,244.5C 291.711,245.274 291.711,246.107 290.5,247C 291.816,247.528 292.483,247.028 292.5,245.5 Z"/></g>
<g><path style="opacity:1" fill="#6e6e6e" d="M 259.5,244.5 C 261.5,244.5 263.5,244.5 265.5,244.5C 265.351,245.552 265.517,246.552 266,247.5C 266.667,246.167 267.333,246.167 268,247.5C 269.301,243.498 269.968,243.498 270,247.5C 269.612,248.428 268.945,249.095 268,249.5C 266.56,248.852 265.06,248.519 263.5,248.5C 263.167,244.5 262.833,244.5 262.5,248.5C 261.5,248.5 260.5,248.5 259.5,248.5C 258.167,247.167 258.167,245.833 259.5,244.5 Z"/></g>
<g><path style="opacity:1" fill="#4b4b4b" d="M 179.5,248.5 C 177.629,248.859 176.129,249.859 175,251.5C 174.517,250.552 174.351,249.552 174.5,248.5C 171.287,248.81 168.287,248.477 165.5,247.5C 166.095,244.887 166.929,244.887 168,247.5C 168.513,246.473 169.013,245.473 169.5,244.5C 169.369,243.624 169.702,242.957 170.5,242.5C 171.833,244.182 173,245.849 174,247.5C 175,245.833 176,244.167 177,242.5C 176.954,244.313 177.12,245.979 177.5,247.5C 181.477,243.485 182.143,243.818 179.5,248.5 Z"/></g>
<g><path style="opacity:1" fill="#4e4e4e" d="M 151.5,241.5 C 152.376,241.369 153.043,241.702 153.5,242.5C 153.229,245.047 152.229,247.047 150.5,248.5C 149.325,248.719 148.325,248.386 147.5,247.5C 148.077,245.45 149.41,244.45 151.5,244.5C 151.5,243.5 151.5,242.5 151.5,241.5 Z"/></g>
<g><path style="opacity:1" fill="#404040" d="M 142.5,244.5 C 143.833,244.5 145.167,244.5 146.5,244.5C 146.762,245.978 146.429,247.311 145.5,248.5C 144.808,247.975 144.308,247.308 144,246.5C 142.951,248.107 141.451,248.773 139.5,248.5C 139.329,245.203 139.995,244.869 141.5,247.5C 142.386,246.675 142.719,245.675 142.5,244.5 Z"/></g>
<g><path style="opacity:1" fill="#404040" d="M 355.5,244.5 C 356.782,245.708 356.782,247.042 355.5,248.5C 354.708,247.3 354.708,245.967 355.5,244.5 Z"/></g>
<g><path style="opacity:1" fill="#3e3e3e" d="M 327.5,244.5 C 328.782,245.708 328.782,247.042 327.5,248.5C 326.708,247.3 326.708,245.967 327.5,244.5 Z"/></g>
<g><path style="opacity:1" fill="#414141" d="M 317.5,246.5 C 316.673,247.439 316.006,247.105 315.5,245.5C 316.623,244.243 317.289,244.576 317.5,246.5 Z"/></g>
<g><path style="opacity:1" fill="#b1b1b1" d="M 324.5,244.5 C 323.999,246.707 322.999,248.04 321.5,248.5C 318.833,248.833 316.167,249.167 313.5,249.5C 313.157,247.517 313.824,246.183 315.5,245.5C 316.006,247.105 316.673,247.439 317.5,246.5C 318.85,245.517 319.85,244.184 320.5,242.5C 321.524,243.853 322.857,244.52 324.5,244.5 Z"/></g>
<g><path style="opacity:1" fill="#474747" d="M 183.5,248.5 C 182.833,249.833 181.833,250.833 180.5,251.5C 181.03,249.076 181.864,246.743 183,244.5C 183.49,245.793 183.657,247.127 183.5,248.5 Z"/></g>
<g><path style="opacity:1" fill="#222222" d="M 136.5,245.5 C 137.267,246.172 137.934,247.005 138.5,248C 136.939,248.188 136.272,247.355 136.5,245.5 Z"/></g>
<g><path style="opacity:1" fill="#4f4f4f" d="M 358.5,242.5 C 359.497,242.47 360.164,242.97 360.5,244C 360.122,245.635 359.456,247.135 358.5,248.5C 357.481,246.54 357.481,244.54 358.5,242.5 Z"/></g>
<g><path style="opacity:1" fill="#414141" d="M 309.5,241.5 C 310.797,243.693 310.797,246.027 309.5,248.5C 308.637,246.229 308.637,243.895 309.5,241.5 Z"/></g>
<g><path style="opacity:1" fill="#565656" d="M 285.5,241.5 C 286.239,241.369 286.906,241.536 287.5,242C 287.868,244.033 287.868,246.2 287.5,248.5C 287.002,247.397 286.669,246.397 286.5,245.5C 285.167,249.5 283.833,249.5 282.5,245.5C 281.614,246.325 281.281,247.325 281.5,248.5C 280.167,248.5 278.833,248.5 277.5,248.5C 276.996,244.665 275.996,244.665 274.5,248.5C 273.41,247.609 273.41,246.609 274.5,245.5C 276.074,244.369 277.741,244.202 279.5,245C 278.549,245.718 278.383,246.551 279,247.5C 281.335,245.6 283.502,243.6 285.5,241.5 Z"/></g>
<g><path style="opacity:1" fill="#262626" d="M 257.5,242.5 C 257.5,243.833 257.5,245.167 257.5,246.5C 256.778,246.918 256.278,247.584 256,248.5C 255.262,246.119 255.762,244.119 257.5,242.5 Z"/></g>
<g><path style="opacity:1" fill="#6a6a6a" d="M 246.5,240.5 C 248.173,241.343 249.34,242.676 250,244.5C 250.333,243.5 250.667,242.5 251,241.5C 251.667,243.833 251.667,246.167 251,248.5C 249.26,247.284 248.26,245.618 248,243.5C 247.667,245.167 247.333,246.833 247,248.5C 246.503,245.854 246.336,243.187 246.5,240.5 Z"/></g>
<g><path style="opacity:1" fill="#969696" d="M 259.5,244.5 C 258.167,245.833 258.167,247.167 259.5,248.5C 259.44,249.043 259.107,249.376 258.5,249.5C 257.614,248.675 257.281,247.675 257.5,246.5C 257.5,245.167 257.5,243.833 257.5,242.5C 257.56,241.957 257.893,241.624 258.5,241.5C 259.386,242.325 259.719,243.325 259.5,244.5 Z"/></g>
<g><path style="opacity:1" fill="#707070" d="M 244.5,240.5 C 245.68,243.17 245.513,245.836 244,248.5C 241.985,246.527 242.152,244.86 244.5,243.5C 244.167,242.5 243.5,241.833 242.5,241.5C 241.526,243.743 241.192,246.076 241.5,248.5C 240.527,246.052 240.194,243.385 240.5,240.5C 241.833,240.5 243.167,240.5 244.5,240.5 Z"/></g>
<g><path style="opacity:1" fill="#ebebeb" d="M 228.5,230.5 C 226.674,232.455 226.174,234.788 227,237.5C 227.991,236.061 229.324,235.061 231,234.5C 231.49,233.207 231.657,231.873 231.5,230.5C 233.415,230.216 235.081,230.549 236.5,231.5C 236.222,233.346 236.889,234.68 238.5,235.5C 238.296,234.471 238.796,233.471 240,232.5C 240.611,236.272 241.611,236.272 243,232.5C 243.249,233.624 243.749,234.624 244.5,235.5C 245.726,234.637 247.06,234.637 248.5,235.5C 247.336,238.578 245.836,238.912 244,236.5C 243.805,237.819 243.972,239.153 244.5,240.5C 243.167,240.5 241.833,240.5 240.5,240.5C 240.194,243.385 240.527,246.052 241.5,248.5C 240.5,249.833 239.5,249.833 238.5,248.5C 239.773,245.804 239.439,243.138 237.5,240.5C 235.506,243.15 234.506,246.15 234.5,249.5C 234.167,249.5 233.833,249.5 233.5,249.5C 232.993,248.141 231.993,247.141 230.5,246.5C 231.376,245.749 232.376,245.249 233.5,245C 229.701,243.447 229.701,242.114 233.5,241C 232.207,240.51 230.873,240.343 229.5,240.5C 229.5,243.5 229.5,246.5 229.5,249.5C 229.167,249.5 228.833,249.5 228.5,249.5C 227.111,246.721 226.278,243.721 226,240.5C 225.503,243.146 225.336,245.813 225.5,248.5C 223.389,249.742 221.389,249.742 219.5,248.5C 221.144,248.714 222.644,248.38 224,247.5C 223.793,245.249 223.627,242.915 223.5,240.5C 222.167,240.5 220.833,240.5 219.5,240.5C 219.5,242.167 219.5,243.833 219.5,245.5C 218.167,245.5 216.833,245.5 215.5,245.5C 215.227,243.549 215.893,242.049 217.5,241C 216.552,240.517 215.552,240.351 214.5,240.5C 214.5,243.5 214.5,246.5 214.5,249.5C 214.167,249.5 213.833,249.5 213.5,249.5C 212.993,248.141 211.993,247.141 210.5,246.5C 211.653,245.313 211.653,244.313 210.5,243.5C 210.44,242.957 210.107,242.624 209.5,242.5C 207.491,243.065 205.824,244.065 204.5,245.5C 204.649,244.448 204.483,243.448 204,242.5C 203.261,244.221 202.427,245.887 201.5,247.5C 200.494,247.062 200.494,246.396 201.5,245.5C 199.389,244.152 197.555,244.485 196,246.5C 195.355,245.354 194.522,244.354 193.5,243.5C 194.025,242.808 194.692,242.308 195.5,242C 193.112,241.135 191.612,241.968 191,244.5C 189.485,242.095 188.318,242.428 187.5,245.5C 185.058,245.119 184.391,245.786 185.5,247.5C 185.043,248.298 184.376,248.631 183.5,248.5C 183.657,247.127 183.49,245.793 183,244.5C 181.864,246.743 181.03,249.076 180.5,251.5C 179.596,250.791 179.263,249.791 179.5,248.5C 182.143,243.818 181.477,243.485 177.5,247.5C 177.12,245.979 176.954,244.313 177,242.5C 176,244.167 175,245.833 174,247.5C 173,245.849 171.833,244.182 170.5,242.5C 169.702,242.957 169.369,243.624 169.5,244.5C 165.167,244.5 160.833,244.5 156.5,244.5C 156.5,245.833 156.5,247.167 156.5,248.5C 154.589,248.991 152.589,248.991 150.5,248.5C 152.229,247.047 153.229,245.047 153.5,242.5C 153.043,241.702 152.376,241.369 151.5,241.5C 149.255,241.459 148.588,240.625 149.5,239C 148.695,237.887 148.028,236.721 147.5,235.5C 149.124,235.64 150.29,234.973 151,233.5C 151.308,234.308 151.808,234.975 152.5,235.5C 153.172,234.051 153.839,232.718 154.5,231.5C 154.833,231.5 155.167,231.5 155.5,231.5C 154.065,232.985 154.232,234.318 156,235.5C 156.49,234.207 156.657,232.873 156.5,231.5C 157.268,232.263 157.768,233.263 158,234.5C 158.49,233.207 158.657,231.873 158.5,230.5C 159.167,230.833 159.833,231.167 160.5,231.5C 159.766,232.708 159.433,234.041 159.5,235.5C 163.456,235.208 167.123,234.875 170.5,234.5C 171.961,235.686 173.295,235.686 174.5,234.5C 175.833,235.833 177.167,235.833 178.5,234.5C 179.332,234.246 179.999,233.246 180.5,231.5C 180.5,232.167 180.833,232.5 181.5,232.5C 181.754,237.666 183.254,238.333 186,234.5C 187.049,235.517 188.216,235.684 189.5,235C 188.529,233.959 187.529,233.126 186.5,232.5C 186.866,231.305 187.699,230.639 189,230.5C 190.3,231.707 191.8,232.374 193.5,232.5C 193.272,234.355 193.939,235.188 195.5,235C 195.327,233.091 194.993,231.257 194.5,229.5C 194.56,228.957 194.893,228.624 195.5,228.5C 196.182,229.243 196.849,229.909 197.5,230.5C 196.527,232.068 196.36,233.735 197,235.5C 198,231.5 199,231.5 200,235.5C 200.494,233.866 200.66,232.199 200.5,230.5C 201.167,231.167 201.833,231.833 202.5,232.5C 201.147,233.867 201.481,234.867 203.5,235.5C 204.696,235.154 204.696,234.654 203.5,234C 204.094,233.536 204.761,233.369 205.5,233.5C 206.458,233.953 207.292,234.619 208,235.5C 208.399,235.272 208.565,234.938 208.5,234.5C 211.852,235.259 215.185,235.592 218.5,235.5C 219.598,231.639 220.431,231.639 221,235.5C 222.269,234.095 222.769,232.429 222.5,230.5C 223.262,229.025 223.595,227.691 223.5,226.5C 225.489,227.632 227.156,228.965 228.5,230.5 Z"/></g>
<g><path style="opacity:1" fill="#8a8a8a" d="M 210.5,243.5 C 211.653,244.313 211.653,245.313 210.5,246.5C 211.993,247.141 212.993,248.141 213.5,249.5C 211.833,249.5 210.167,249.5 208.5,249.5C 208.604,247.297 209.27,245.297 210.5,243.5 Z"/></g>
<g><path style="opacity:1" fill="#575757" d="M 204.5,245.5 C 203.226,246.189 203.226,247.023 204.5,248C 202.866,248.494 201.199,248.66 199.5,248.5C 199.798,245.664 199.131,245.164 197.5,247C 197.833,247.333 198.167,247.667 198.5,248C 197.128,248.402 195.795,248.902 194.5,249.5C 193.887,248.02 193.554,246.687 193.5,245.5C 192.614,246.325 192.281,247.325 192.5,248.5C 190.833,248.5 189.167,248.5 187.5,248.5C 187.5,247.5 187.5,246.5 187.5,245.5C 188.318,242.428 189.485,242.095 191,244.5C 191.612,241.968 193.112,241.135 195.5,242C 194.692,242.308 194.025,242.808 193.5,243.5C 194.522,244.354 195.355,245.354 196,246.5C 197.555,244.485 199.389,244.152 201.5,245.5C 200.494,246.396 200.494,247.062 201.5,247.5C 202.427,245.887 203.261,244.221 204,242.5C 204.483,243.448 204.649,244.448 204.5,245.5 Z"/></g>
<g><path style="opacity:1" fill="#686868" d="M 228.5,249.5 C 227.209,249.737 226.209,249.404 225.5,248.5C 225.336,245.813 225.503,243.146 226,240.5C 226.278,243.721 227.111,246.721 228.5,249.5 Z"/></g>
<g><path style="opacity:1" fill="#757575" d="M 238.5,248.5 C 238.631,247.624 238.298,246.957 237.5,246.5C 236.265,247.34 235.265,248.34 234.5,249.5C 234.506,246.15 235.506,243.15 237.5,240.5C 239.439,243.138 239.773,245.804 238.5,248.5 Z"/></g>
<g><path style="opacity:1" fill="#6f6f6f" d="M 233.5,249.5 C 232.167,249.5 230.833,249.5 229.5,249.5C 229.5,246.5 229.5,243.5 229.5,240.5C 230.873,240.343 232.207,240.51 233.5,241C 229.701,242.114 229.701,243.447 233.5,245C 232.376,245.249 231.376,245.749 230.5,246.5C 231.993,247.141 232.993,248.141 233.5,249.5 Z"/></g>
<g><path style="opacity:1" fill="#878787" d="M 169.5,244.5 C 169.013,245.473 168.513,246.473 168,247.5C 166.929,244.887 166.095,244.887 165.5,247.5C 164.469,248.355 163.303,249.022 162,249.5C 160.109,249.313 158.275,248.979 156.5,248.5C 156.5,247.167 156.5,245.833 156.5,244.5C 160.833,244.5 165.167,244.5 169.5,244.5 Z"/></g>
<g><path style="opacity:1" fill="#5a5a5a" d="M 215.5,245.5 C 216.007,246.859 217.007,247.859 218.5,248.5C 217.311,249.429 215.978,249.762 214.5,249.5C 214.5,246.5 214.5,243.5 214.5,240.5C 215.552,240.351 216.552,240.517 217.5,241C 215.893,242.049 215.227,243.549 215.5,245.5 Z"/></g>
<g><path style="opacity:1" fill="#787878" d="M 219.5,248.5 C 219.5,247.5 219.5,246.5 219.5,245.5C 219.5,243.833 219.5,242.167 219.5,240.5C 220.833,240.5 222.167,240.5 223.5,240.5C 223.627,242.915 223.793,245.249 224,247.5C 222.644,248.38 221.144,248.714 219.5,248.5 Z"/></g>
<g><path style="opacity:1" fill="#5a5a5a" d="M 323.5,231.5 C 324.373,235.494 325.54,235.494 327,231.5C 327.687,233.92 327.187,236.087 325.5,238C 324.668,238.688 324.002,238.521 323.5,237.5C 324.55,236.571 324.55,235.905 323.5,235.5C 322.595,234.298 322.595,232.964 323.5,231.5 Z"/></g>
<g><path style="opacity:1" fill="#7d7d7d" d="M 333.5,235.5 C 333.5,234.167 333.5,232.833 333.5,231.5C 334.601,230.402 335.934,230.235 337.5,231C 336.304,231.654 336.304,232.154 337.5,232.5C 339.641,229.981 341.641,229.981 343.5,232.5C 342.266,234.552 340.6,236.219 338.5,237.5C 337.158,235.995 335.492,235.328 333.5,235.5 Z"/></g>
<g><path style="opacity:1" fill="#5e5e5e" d="M 307.5,235.5 C 307.557,234.391 307.89,233.391 308.5,232.5C 309.183,230.824 310.517,230.157 312.5,230.5C 312.785,232.288 312.452,233.955 311.5,235.5C 310.749,234.624 310.249,233.624 310,232.5C 309.764,234.119 308.931,235.119 307.5,235.5 Z"/></g>
<g><path style="opacity:1" fill="#525252" d="M 298.5,231.5 C 299.268,232.263 299.768,233.263 300,234.5C 301.941,230.446 302.775,230.78 302.5,235.5C 294.801,237.002 292.968,234.669 297,228.5C 297.167,229 297.333,229.5 297.5,230C 296.67,231.465 296.504,232.965 297,234.5C 297.513,233.473 298.013,232.473 298.5,231.5 Z"/></g>
<g><path style="opacity:1" fill="#4e4e4e" d="M 284.5,235.5 C 283.876,235.083 283.543,234.416 283.5,233.5C 283.747,232.287 284.414,231.62 285.5,231.5C 285.859,233.831 286.526,233.665 287.5,231C 288.448,230.517 289.448,230.351 290.5,230.5C 290.544,227.519 290.877,227.186 291.5,229.5C 290.452,231.41 290.452,233.244 291.5,235C 291.167,235.167 290.833,235.333 290.5,235.5C 289.719,234.271 289.219,232.938 289,231.5C 287.383,232.536 287.216,233.703 288.5,235C 287.207,235.49 285.873,235.657 284.5,235.5 Z"/></g>
<g><path style="opacity:1" fill="#bababa" d="M 285.5,231.5 C 284.414,231.62 283.747,232.287 283.5,233.5C 283.543,234.416 283.876,235.083 284.5,235.5C 283.5,236.833 282.5,236.833 281.5,235.5C 282.028,234.153 282.195,232.819 282,231.5C 280.812,232.563 280.312,233.897 280.5,235.5C 280.167,235.5 279.833,235.5 279.5,235.5C 279.657,234.127 279.49,232.793 279,231.5C 277.232,232.682 277.065,234.015 278.5,235.5C 274.348,235.369 273.682,233.869 276.5,231C 279.696,230.195 282.696,230.362 285.5,231.5 Z"/></g>
<g><path style="opacity:1" fill="#6c6c6c" d="M 228.5,230.5 C 229.5,230.5 230.5,230.5 231.5,230.5C 231.657,231.873 231.49,233.207 231,234.5C 229.324,235.061 227.991,236.061 227,237.5C 226.174,234.788 226.674,232.455 228.5,230.5 Z"/></g>
<g><path style="opacity:1" fill="#565656" d="M 186.5,232.5 C 187.529,233.126 188.529,233.959 189.5,235C 188.216,235.684 187.049,235.517 186,234.5C 183.254,238.333 181.754,237.666 181.5,232.5C 182.341,231.991 182.841,232.657 183,234.5C 183.915,233.672 184.581,232.672 185,231.5C 185.333,232.167 185.667,232.833 186,233.5C 186.399,233.272 186.565,232.938 186.5,232.5 Z"/></g>
<g><path style="opacity:1" fill="#969696" d="M 323.5,231.5 C 322.595,232.964 322.595,234.298 323.5,235.5C 320.715,236.084 319.048,235.084 318.5,232.5C 319.935,230.599 321.602,230.266 323.5,231.5 Z"/></g>
<g><path style="opacity:1" fill="#7e7e7e" d="M 248.5,235.5 C 247.06,234.637 245.726,234.637 244.5,235.5C 243.749,234.624 243.249,233.624 243,232.5C 241.611,236.272 240.611,236.272 240,232.5C 238.796,233.471 238.296,234.471 238.5,235.5C 236.889,234.68 236.222,233.346 236.5,231.5C 239.293,230.938 241.626,229.605 243.5,227.5C 243.532,229.489 244.365,231.489 246,233.5C 246.368,232.09 247.201,231.09 248.5,230.5C 249.831,231.166 251.331,231.166 253,230.5C 254.907,232.584 256.573,232.584 258,230.5C 258.308,231.308 258.808,231.975 259.5,232.5C 260.5,231.167 261.5,229.833 262.5,228.5C 262.749,229.582 262.915,230.915 263,232.5C 264.667,229.833 266.333,229.833 268,232.5C 268.333,232.167 268.667,231.833 269,231.5C 269.318,233.061 270.151,234.228 271.5,235C 266.179,235.363 260.845,235.53 255.5,235.5C 254.006,235.291 252.839,234.624 252,233.5C 251.29,234.973 250.124,235.64 248.5,235.5 Z"/></g>
<g><path style="opacity:1" fill="#797979" d="M 178.5,230.5 C 178.5,231.833 178.5,233.167 178.5,234.5C 177.167,235.833 175.833,235.833 174.5,234.5C 174.957,232.227 176.29,230.894 178.5,230.5 Z"/></g>
<g><path style="opacity:1" fill="#2f2f2f" d="M 174.5,234.5 C 173.295,235.686 171.961,235.686 170.5,234.5C 170.987,233.527 171.487,232.527 172,231.5C 172.236,233.119 173.069,234.119 174.5,234.5 Z"/></g>
<g><path style="opacity:1" fill="#383838" d="M 135.5,231.5 C 135.5,232.833 135.5,234.167 135.5,235.5C 133.219,234.366 133.219,233.032 135.5,231.5 Z"/></g>
<g><path style="opacity:1" fill="#4f4f4f" d="M 333.5,231.5 C 333.5,232.833 333.5,234.167 333.5,235.5C 332.414,235.38 331.747,234.713 331.5,233.5C 331.747,232.287 332.414,231.62 333.5,231.5 Z"/></g>
<g><path style="opacity:1" fill="#373737" d="M 281.5,235.5 C 281.167,235.5 280.833,235.5 280.5,235.5C 280.312,233.897 280.812,232.563 282,231.5C 282.195,232.819 282.028,234.153 281.5,235.5 Z"/></g>
<g><path style="opacity:1" fill="#343434" d="M 279.5,235.5 C 279.167,235.5 278.833,235.5 278.5,235.5C 277.065,234.015 277.232,232.682 279,231.5C 279.49,232.793 279.657,234.127 279.5,235.5 Z"/></g>
<g><path style="opacity:1" fill="#545454" d="M 232.5,232.5 C 233.209,231.596 234.209,231.263 235.5,231.5C 235.33,236.275 234.33,236.608 232.5,232.5 Z"/></g>
<g><path style="opacity:1" fill="#7e7e7e" d="M 205.5,233.5 C 204.761,233.369 204.094,233.536 203.5,234C 204.696,234.654 204.696,235.154 203.5,235.5C 201.481,234.867 201.147,233.867 202.5,232.5C 203.427,230.524 204.76,230.191 206.5,231.5C 206.137,232.183 205.804,232.85 205.5,233.5 Z"/></g>
<g><path style="opacity:1" fill="#3a3a3a" d="M 156.5,231.5 C 156.842,230.662 157.508,230.328 158.5,230.5C 158.657,231.873 158.49,233.207 158,234.5C 157.768,233.263 157.268,232.263 156.5,231.5 Z"/></g>
<g><path style="opacity:1" fill="#383838" d="M 155.5,231.5 C 155.833,231.5 156.167,231.5 156.5,231.5C 156.657,232.873 156.49,234.207 156,235.5C 154.232,234.318 154.065,232.985 155.5,231.5 Z"/></g>
<g><path style="opacity:1" fill="#5a5a5a" d="M 154.5,231.5 C 153.839,232.718 153.172,234.051 152.5,235.5C 151.808,234.975 151.308,234.308 151,233.5C 150.29,234.973 149.124,235.64 147.5,235.5C 146.81,234.12 146.476,232.786 146.5,231.5C 145.571,232.689 145.238,234.022 145.5,235.5C 143.833,235.5 142.167,235.5 140.5,235.5C 139.89,234.609 139.557,233.609 139.5,232.5C 140.117,232.389 140.617,232.056 141,231.5C 141.249,232.624 141.749,233.624 142.5,234.5C 142.833,234.333 143.167,234.167 143.5,234C 144.007,231.434 145.174,229.267 147,227.5C 148.563,228.102 148.396,228.935 146.5,230C 147.849,230.772 148.682,231.939 149,233.5C 149.483,232.552 149.649,231.552 149.5,230.5C 151.415,230.216 153.081,230.549 154.5,231.5 Z"/></g>
<g><path style="opacity:1" fill="#5a5a5a" d="M 119.5,230.5 C 120.75,230.577 121.583,231.244 122,232.5C 122.308,231.692 122.808,231.025 123.5,230.5C 124.425,231.641 125.259,231.641 126,230.5C 126.317,232.301 126.984,232.634 128,231.5C 128.309,232.766 128.809,233.933 129.5,235C 127.193,235.337 125.36,234.504 124,232.5C 123.517,233.448 123.351,234.448 123.5,235.5C 122.167,235.5 120.833,235.5 119.5,235.5C 119.5,233.833 119.5,232.167 119.5,230.5 Z"/></g>
<g><path style="opacity:1" fill="#5f5f5f" d="M 345.5,230.5 C 346.833,230.5 348.167,230.5 349.5,230.5C 349.657,231.873 349.49,233.207 349,234.5C 344.436,238.311 343.27,236.978 345.5,230.5 Z"/></g>
<g><path style="opacity:1" fill="#b7b7b7" d="M 298.5,231.5 C 301.979,230.01 305.312,230.343 308.5,232.5C 307.89,233.391 307.557,234.391 307.5,235.5C 307.167,235.5 306.833,235.5 306.5,235.5C 306.762,234.022 306.429,232.689 305.5,231.5C 305.094,232.557 305.094,233.891 305.5,235.5C 304.5,234.167 303.5,234.167 302.5,235.5C 302.775,230.78 301.941,230.446 300,234.5C 299.768,233.263 299.268,232.263 298.5,231.5 Z"/></g>
<g><path style="opacity:1" fill="#2c2c2c" d="M 306.5,235.5 C 306.167,235.5 305.833,235.5 305.5,235.5C 305.094,233.891 305.094,232.557 305.5,231.5C 306.429,232.689 306.762,234.022 306.5,235.5 Z"/></g>
<g><path style="opacity:1" fill="#777777" d="M 222.5,230.5 C 222.769,232.429 222.269,234.095 221,235.5C 220.431,231.639 219.598,231.639 218.5,235.5C 215.185,235.592 211.852,235.259 208.5,234.5C 208.76,232.405 209.926,231.072 212,230.5C 213.333,231.833 214.667,231.833 216,230.5C 216.945,230.905 217.612,231.572 218,232.5C 219.049,230.893 220.549,230.227 222.5,230.5 Z"/></g>
<g><path style="opacity:1" fill="#3d3d3d" d="M 194.5,229.5 C 194.993,231.257 195.327,233.091 195.5,235C 193.939,235.188 193.272,234.355 193.5,232.5C 193.557,231.391 193.89,230.391 194.5,229.5 Z"/></g>
<g><path style="opacity:1" fill="#202020" d="M 180.5,231.5 C 179.999,233.246 179.332,234.246 178.5,234.5C 178.5,233.167 178.5,231.833 178.5,230.5C 179.268,229.737 179.768,228.737 180,227.5C 180.49,228.793 180.657,230.127 180.5,231.5 Z"/></g>
<g><path style="opacity:1" fill="#696969" d="M 170.5,234.5 C 167.123,234.875 163.456,235.208 159.5,235.5C 159.433,234.041 159.766,232.708 160.5,231.5C 161.417,231.494 161.917,232.494 162,234.5C 162.112,231.553 163.612,230.22 166.5,230.5C 166.351,231.552 166.517,232.552 167,233.5C 167.543,231.369 168.376,229.369 169.5,227.5C 170.103,229.452 169.77,231.452 168.5,233.5C 168.957,234.298 169.624,234.631 170.5,234.5 Z"/></g>
<g><path style="opacity:1" fill="#b2b2b2" d="M 139.5,232.5 C 139.557,233.609 139.89,234.609 140.5,235.5C 139.833,235.5 139.167,235.5 138.5,235.5C 138.79,231.446 138.123,230.946 136.5,234C 137.056,234.383 137.389,234.883 137.5,235.5C 136.833,235.5 136.167,235.5 135.5,235.5C 135.5,234.167 135.5,232.833 135.5,231.5C 135.917,230.876 136.584,230.543 137.5,230.5C 138.713,230.747 139.38,231.414 139.5,232.5 Z"/></g>
<g><path style="opacity:1" fill="#2b2b2b" d="M 138.5,235.5 C 138.167,235.5 137.833,235.5 137.5,235.5C 137.389,234.883 137.056,234.383 136.5,234C 138.123,230.946 138.79,231.446 138.5,235.5 Z"/></g>
<g><path style="opacity:1" fill="#6e6e6e" d="M 371.5,227.5 C 374.879,229.651 375.213,232.317 372.5,235.5C 371.575,234.359 370.741,234.359 370,235.5C 369.517,234.552 369.351,233.552 369.5,232.5C 366.282,232.651 365.949,233.484 368.5,235C 368,235.167 367.5,235.333 367,235.5C 362.087,234.868 357.254,234.868 352.5,235.5C 350.564,234.092 350.398,232.759 352,231.5C 352.945,231.905 353.612,232.572 354,233.5C 354.589,231.137 356.089,230.137 358.5,230.5C 358.459,234.243 359.126,234.41 360.5,231C 361.793,230.51 363.127,230.343 364.5,230.5C 364.351,231.552 364.517,232.552 365,233.5C 367.081,231.415 369.248,229.415 371.5,227.5 Z"/></g>
<g><path style="opacity:1" fill="#5b5b5b" d="M 200.5,230.5 C 200.66,232.199 200.494,233.866 200,235.5C 199,231.5 198,231.5 197,235.5C 196.36,233.735 196.527,232.068 197.5,230.5C 198.754,226.69 199.754,226.69 200.5,230.5 Z"/></g>
<g><path style="opacity:1" fill="#686868" d="M 318.5,232.5 C 317.596,233.209 317.263,234.209 317.5,235.5C 316.167,235.5 314.833,235.5 313.5,235.5C 313.337,232.314 314.337,229.647 316.5,227.5C 317.562,229.022 318.229,230.688 318.5,232.5 Z"/></g>
<g><path style="opacity:1" fill="#6d6d6d" d="M 223.5,213.5 C 224.5,213.5 225.5,213.5 226.5,213.5C 226.523,215.6 225.856,217.433 224.5,219C 224.905,219.945 225.572,220.612 226.5,221C 224.697,221.637 223.364,222.803 222.5,224.5C 221.8,221.985 220.467,221.318 218.5,222.5C 215.811,220.185 216.145,218.185 219.5,216.5C 220.799,217.09 221.632,218.09 222,219.5C 223.128,217.655 223.628,215.655 223.5,213.5 Z"/></g>
<g><path style="opacity:1" fill="#8f8f8f" d="M 252.5,217.5 C 255.389,217.999 256.056,219.499 254.5,222C 253.552,222.483 252.552,222.649 251.5,222.5C 251.629,220.784 251.962,219.117 252.5,217.5 Z"/></g>
<g><path style="opacity:1" fill="#878787" d="M 229.5,217.5 C 230.5,217.5 231.5,217.5 232.5,217.5C 232.773,219.958 231.773,221.625 229.5,222.5C 228.566,220.905 228.566,219.239 229.5,217.5 Z"/></g>
<g><path style="opacity:1" fill="#696969" d="M 335.5,218.5 C 338.895,217.023 339.561,217.356 337.5,219.5C 340.167,220.5 340.167,221.5 337.5,222.5C 335.958,221.253 334.458,221.253 333,222.5C 331.731,221.095 331.231,219.429 331.5,217.5C 333.099,217.232 334.432,217.566 335.5,218.5 Z"/></g>
<g><path style="opacity:1" fill="#4d4d4d" d="M 317.5,217.5 C 318.75,217.577 319.583,218.244 320,219.5C 321.016,218.366 321.683,218.699 322,220.5C 324.275,216.517 325.275,216.517 325,220.5C 326.186,218.323 328.019,217.323 330.5,217.5C 330.762,218.978 330.429,220.311 329.5,221.5C 328.808,220.975 328.308,220.308 328,219.5C 324.851,221.362 321.351,222.029 317.5,221.5C 317.5,220.167 317.5,218.833 317.5,217.5 Z"/></g>
<g><path style="opacity:1" fill="#494949" d="M 308.5,217.5 C 309.552,217.351 310.552,217.517 311.5,218C 310.379,220.923 310.713,221.089 312.5,218.5C 313.689,217.571 315.022,217.238 316.5,217.5C 316.509,219.308 316.009,220.975 315,222.5C 314.667,221.5 314.333,220.5 314,219.5C 312.951,221.107 311.451,221.773 309.5,221.5C 309.167,220.167 308.833,218.833 308.5,217.5 Z"/></g>
<g><path style="opacity:1" fill="#464646" d="M 306.5,217.5 C 306.587,220.598 306.087,220.932 305,218.5C 304.768,219.737 304.268,220.737 303.5,221.5C 301.418,221.624 299.918,222.624 299,224.5C 298.542,221.442 298.876,218.442 300,215.5C 300.718,214.549 301.551,214.383 302.5,215C 299.638,220.811 300.305,221.478 304.5,217C 305.437,216.308 306.103,216.475 306.5,217.5 Z"/></g>
<g><path style="opacity:1" fill="#444444" d="M 284.5,217.5 C 286.167,217.5 287.833,217.5 289.5,217.5C 289.058,221.847 288.225,222.18 287,218.5C 285.059,226.375 284.226,226.042 284.5,217.5 Z"/></g>
<g><path style="opacity:1" fill="#5f5f5f" d="M 268.5,215.5 C 269.302,216.952 269.802,218.618 270,220.5C 272.275,216.517 273.275,216.517 273,220.5C 273.915,219.672 274.581,218.672 275,217.5C 275.309,218.766 275.809,219.933 276.5,221C 273.979,222.399 271.479,222.899 269,222.5C 267.277,220.333 267.11,218 268.5,215.5 Z"/></g>
<g><path style="opacity:1" fill="#3c3c3c" d="M 263.5,221.5 C 264.038,219.883 264.371,218.216 264.5,216.5C 265.002,214.915 266.002,214.415 267.5,215C 266.357,217.425 265.024,219.592 263.5,221.5 Z"/></g>
<g><path style="opacity:1" fill="#6f6f6f" d="M 245.5,214.5 C 249.866,218.121 249.199,220.454 243.5,221.5C 243.767,219.035 244.434,216.701 245.5,214.5 Z"/></g>
<g><path style="opacity:1" fill="#2c2c2c" d="M 239.5,218.5 C 240.267,219.172 240.934,220.005 241.5,221C 239.939,221.188 239.272,220.355 239.5,218.5 Z"/></g>
<g><path style="opacity:1" fill="#686868" d="M 205.5,216.5 C 207.045,217.23 207.878,218.563 208,220.5C 209.987,216.633 210.487,216.633 209.5,220.5C 207.604,221.466 205.604,221.799 203.5,221.5C 203.392,219.486 204.058,217.82 205.5,216.5 Z"/></g>
<g><path style="opacity:1" fill="#7c7c7c" d="M 184.5,218.5 C 186.205,221.287 187.372,220.954 188,217.5C 188.64,219.265 188.473,220.932 187.5,222.5C 185.694,225.338 184.694,225.005 184.5,221.5C 178.844,222.573 173.178,222.407 167.5,221C 166.663,219.989 166.33,218.822 166.5,217.5C 169.244,218.51 171.577,218.176 173.5,216.5C 174.192,217.025 174.692,217.692 175,218.5C 175.689,217.643 176.522,216.977 177.5,216.5C 180.036,216.844 182.203,217.844 184,219.5C 184.399,219.272 184.565,218.938 184.5,218.5 Z"/></g>
<g><path style="opacity:1" fill="#606060" d="M 159.5,217.5 C 160.873,217.343 162.207,217.51 163.5,218C 162.663,219.011 162.33,220.178 162.5,221.5C 161.167,221.5 159.833,221.5 158.5,221.5C 158.433,220.041 158.766,218.708 159.5,217.5 Z"/></g>
<g><path style="opacity:1" fill="#b2b2b2" d="M 306.5,217.5 C 307.167,217.5 307.833,217.5 308.5,217.5C 308.833,218.833 309.167,220.167 309.5,221.5C 307.259,221.954 305.259,221.954 303.5,221.5C 304.268,220.737 304.768,219.737 305,218.5C 306.087,220.932 306.587,220.598 306.5,217.5 Z"/></g>
<g><path style="opacity:1" fill="#898989" d="M 290.5,217.5 C 292.833,217.5 295.167,217.5 297.5,217.5C 297.762,218.978 297.429,220.311 296.5,221.5C 294.939,220.653 293.439,220.986 292,222.5C 290.731,221.095 290.231,219.429 290.5,217.5 Z"/></g>
<g><path style="opacity:1" fill="#575757" d="M 196.5,221.5 C 195.624,221.631 194.957,221.298 194.5,220.5C 195.127,219.583 195.461,218.583 195.5,217.5C 197.143,217.52 198.476,216.853 199.5,215.5C 200.251,216.376 200.751,217.376 201,218.5C 201.333,218.167 201.667,217.833 202,217.5C 202.49,218.793 202.657,220.127 202.5,221.5C 200.833,221.5 199.167,221.5 197.5,221.5C 197.167,217.5 196.833,217.5 196.5,221.5 Z"/></g>
<g><path style="opacity:1" fill="#f2f2f2" d="M 335.5,218.5 C 335.361,220.337 334.694,220.67 333.5,219.5C 333.957,218.702 334.624,218.369 335.5,218.5 Z"/></g>
<g><path style="opacity:1" fill="#404040" d="M 277.5,217.5 C 278.837,218.315 279.837,219.482 280.5,221C 278.522,220.967 277.522,219.8 277.5,217.5 Z"/></g>
<g><path style="opacity:1" fill="#353535" d="M 257.5,215.5 C 258.705,216.672 258.705,218.005 257.5,219.5C 257.833,219.833 258.167,220.167 258.5,220.5C 259.167,219.833 259.833,219.167 260.5,218.5C 261.776,219.614 261.776,220.614 260.5,221.5C 259.167,221.5 257.833,221.5 256.5,221.5C 256.517,219.435 256.85,217.435 257.5,215.5 Z"/></g>
<g><path style="opacity:1" fill="#424242" d="M 236.5,217.5 C 237.376,217.369 238.043,217.702 238.5,218.5C 237.897,219.635 237.564,220.635 237.5,221.5C 236.571,220.311 236.238,218.978 236.5,217.5 Z"/></g>
<g><path style="opacity:1" fill="#494949" d="M 233.5,217.5 C 234.376,217.369 235.043,217.702 235.5,218.5C 234.897,219.635 234.564,220.635 234.5,221.5C 233.571,220.311 233.238,218.978 233.5,217.5 Z"/></g>
<g><path style="opacity:1" fill="#252525" d="M 211.5,217.5 C 212.239,217.369 212.906,217.536 213.5,218C 212.118,222.705 211.451,222.539 211.5,217.5 Z"/></g>
<g><path style="opacity:1" fill="#b5b5b5" d="M 195.5,217.5 C 195.461,218.583 195.127,219.583 194.5,220.5C 194.957,221.298 195.624,221.631 196.5,221.5C 194.653,222.573 192.653,222.573 190.5,221.5C 189.791,222.404 188.791,222.737 187.5,222.5C 188.473,220.932 188.64,219.265 188,217.5C 187.372,220.954 186.205,221.287 184.5,218.5C 184.611,217.883 184.944,217.383 185.5,217C 188.924,216.253 192.257,216.42 195.5,217.5 Z"/></g>
<g><path style="opacity:1" fill="#2a2a2a" d="M 190.5,221.5 C 189.203,220.151 189.37,218.818 191,217.5C 191.195,218.819 191.028,220.153 190.5,221.5 Z"/></g>
<g><path style="opacity:1" fill="#555555" d="M 155.5,215.5 C 155.56,214.957 155.893,214.624 156.5,214.5C 157.854,217.067 157.52,219.401 155.5,221.5C 155.37,219.362 155.37,217.362 155.5,215.5 Z"/></g>
<g><path style="opacity:1" fill="#cacaca" d="M 264.5,216.5 C 264.371,218.216 264.038,219.883 263.5,221.5C 262.348,222.625 261.348,222.625 260.5,221.5C 261.776,220.614 261.776,219.614 260.5,218.5C 259.833,219.167 259.167,219.833 258.5,220.5C 258.167,220.167 257.833,219.833 257.5,219.5C 258.705,218.005 258.705,216.672 257.5,215.5C 257.369,214.624 257.702,213.957 258.5,213.5C 260.243,215.038 262.243,216.038 264.5,216.5 Z"/></g>
<g><path style="opacity:1" fill="#141414" d="M 295.5,187.5 C 296.404,186.791 296.737,185.791 296.5,184.5C 294.167,184.5 291.833,184.5 289.5,184.5C 289.5,183.5 289.5,182.5 289.5,181.5C 293.167,181.5 296.833,181.5 300.5,181.5C 300.5,184.167 300.5,186.833 300.5,189.5C 299.251,191.136 297.584,192.303 295.5,193C 283.186,195.673 277.353,190.84 278,178.5C 282.126,172.03 287.959,169.863 295.5,172C 297.349,173.093 299.016,174.426 300.5,176C 299.127,176.875 297.627,177.375 296,177.5C 292.529,176.545 289.029,176.378 285.5,177C 282.872,180.465 282.872,183.965 285.5,187.5C 288.874,188.751 292.207,188.751 295.5,187.5 Z"/></g>
<g><path style="opacity:1" fill="#141414" d="M 151.5,171.5 C 156.447,170.628 160.613,171.961 164,175.5C 164.483,176.448 164.649,177.448 164.5,178.5C 160.201,177.653 155.867,176.987 151.5,176.5C 151.5,177.5 151.5,178.5 151.5,179.5C 155.741,179.848 159.741,181.015 163.5,183C 166.878,188.132 165.545,191.466 159.5,193C 152.658,194.784 147.658,192.617 144.5,186.5C 148.092,184.7 150.759,185.534 152.5,189C 154.5,189.667 156.5,189.667 158.5,189C 159.833,188 159.833,187 158.5,186C 153.678,185.514 149.511,183.681 146,180.5C 145.152,175.85 146.986,172.85 151.5,171.5 Z"/></g>
<g><path style="opacity:1" fill="#727272" d="M 300.5,189.5 C 300.5,186.833 300.5,184.167 300.5,181.5C 296.833,181.5 293.167,181.5 289.5,181.5C 289.5,182.5 289.5,183.5 289.5,184.5C 291.833,184.5 294.167,184.5 296.5,184.5C 296.737,185.791 296.404,186.791 295.5,187.5C 293.721,185.656 291.388,184.99 288.5,185.5C 288.5,183.833 288.5,182.167 288.5,180.5C 292.833,180.5 297.167,180.5 301.5,180.5C 301.81,183.713 301.477,186.713 300.5,189.5 Z"/></g>
<g><path style="opacity:1" fill="#0e0e0e" d="M 250.5,172.5 C 250.5,177.833 250.5,183.167 250.5,188.5C 254.833,188.5 259.167,188.5 263.5,188.5C 263.5,190.167 263.5,191.833 263.5,193.5C 257.5,193.5 251.5,193.5 245.5,193.5C 245.5,186.5 245.5,179.5 245.5,172.5C 247.167,172.5 248.833,172.5 250.5,172.5 Z"/></g>
<g><path style="opacity:1" fill="#777777" d="M 250.5,172.5 C 248.833,172.5 247.167,172.5 245.5,172.5C 245.5,179.5 245.5,186.5 245.5,193.5C 244.508,186.352 244.175,179.019 244.5,171.5C 246.735,171.205 248.735,171.539 250.5,172.5 Z"/></g>
<g><path style="opacity:1" fill="#111111" d="M 321.5,180.5 C 322.473,178.052 322.806,175.385 322.5,172.5C 324.167,172.5 325.833,172.5 327.5,172.5C 327.5,179.5 327.5,186.5 327.5,193.5C 325.5,193.5 323.5,193.5 321.5,193.5C 321.5,190.833 321.5,188.167 321.5,185.5C 318.167,185.5 314.833,185.5 311.5,185.5C 311.5,188.167 311.5,190.833 311.5,193.5C 309.5,193.5 307.5,193.5 305.5,193.5C 305.5,186.167 305.5,178.833 305.5,171.5C 307.5,171.5 309.5,171.5 311.5,171.5C 311.5,174.5 311.5,177.5 311.5,180.5C 314.833,180.5 318.167,180.5 321.5,180.5 Z"/></g>
<g><path style="opacity:1" fill="#161616" d="M 169.5,171.5 C 174.179,171.334 178.845,171.501 183.5,172C 190.491,176.264 191.157,181.264 185.5,187C 182.312,188.316 178.978,188.816 175.5,188.5C 175.5,190.167 175.5,191.833 175.5,193.5C 173.5,193.5 171.5,193.5 169.5,193.5C 169.5,186.167 169.5,178.833 169.5,171.5 Z"/></g>
<g><path style="opacity:1" fill="#141414" d="M 201.5,171.5 C 212.422,170.918 217.255,175.918 216,186.5C 212.235,192.76 206.735,194.927 199.5,193C 193.673,189.867 191.507,185.034 193,178.5C 194.851,174.843 197.684,172.51 201.5,171.5 Z"/></g>
<g><path style="opacity:1" fill="#efefef" d="M 175.5,176.5 C 177.527,176.338 179.527,176.505 181.5,177C 183.698,178.67 184.032,180.67 182.5,183C 180.19,183.497 177.857,183.663 175.5,183.5C 175.5,181.167 175.5,178.833 175.5,176.5 Z"/></g>
<g><path style="opacity:1" fill="#f1f1f1" d="M 201.5,176.5 C 211.334,176.129 213.667,179.962 208.5,188C 201.185,190.319 197.685,187.819 198,180.5C 198.69,178.65 199.856,177.316 201.5,176.5 Z"/></g>
<g><path style="opacity:1" fill="#5f5f5f" d="M 327.5,172.5 C 325.833,172.5 324.167,172.5 322.5,172.5C 322.806,175.385 322.473,178.052 321.5,180.5C 321.5,177.5 321.5,174.5 321.5,171.5C 323.735,171.205 325.735,171.539 327.5,172.5 Z"/></g>
<g><path style="opacity:1" fill="#151515" d="M 331.5,171.5 C 339.167,171.5 346.833,171.5 354.5,171.5C 354.5,173.167 354.5,174.833 354.5,176.5C 351.5,176.5 348.5,176.5 345.5,176.5C 345.5,182.167 345.5,187.833 345.5,193.5C 343.833,193.5 342.167,193.5 340.5,193.5C 340.5,187.833 340.5,182.167 340.5,176.5C 337.5,176.5 334.5,176.5 331.5,176.5C 331.5,174.833 331.5,173.167 331.5,171.5 Z"/></g>
<g><path style="opacity:1" fill="#090909" d="M 267.5,172.5 C 269.167,172.5 270.833,172.5 272.5,172.5C 272.5,179.5 272.5,186.5 272.5,193.5C 270.833,193.5 269.167,193.5 267.5,193.5C 267.5,186.5 267.5,179.5 267.5,172.5 Z"/></g>
<g><path style="opacity:1" fill="#0d0d0d" d="M 240.5,176.5 C 237.833,176.5 235.167,176.5 232.5,176.5C 232.5,182.167 232.5,187.833 232.5,193.5C 230.5,193.5 228.5,193.5 226.5,193.5C 226.5,187.833 226.5,182.167 226.5,176.5C 223.833,176.5 221.167,176.5 218.5,176.5C 218.5,175.167 218.5,173.833 218.5,172.5C 225.833,172.5 233.167,172.5 240.5,172.5C 240.5,173.833 240.5,175.167 240.5,176.5 Z"/></g>
<g><path style="opacity:1" fill="#6a6a6a" d="M 267.5,172.5 C 269.265,171.539 271.265,171.205 273.5,171.5C 273.825,179.019 273.492,186.352 272.5,193.5C 272.5,186.5 272.5,179.5 272.5,172.5C 270.833,172.5 269.167,172.5 267.5,172.5 Z"/></g>
<g><path style="opacity:1" fill="#6e6e6e" d="M 240.5,176.5 C 240.5,175.167 240.5,173.833 240.5,172.5C 233.167,172.5 225.833,172.5 218.5,172.5C 218.5,173.833 218.5,175.167 218.5,176.5C 217.549,175.081 217.216,173.415 217.5,171.5C 225.5,171.5 233.5,171.5 241.5,171.5C 241.784,173.415 241.451,175.081 240.5,176.5 Z"/></g>
<g><path style="opacity:1" fill="#131313" d="M 161.5,142.5 C 167.279,141.708 172.446,143.041 177,146.5C 177.132,148.323 176.132,149.323 174,149.5C 170.778,147.295 167.278,146.461 163.5,147C 158.167,151 158.167,155 163.5,159C 165.5,159.667 167.5,159.667 169.5,159C 171.055,157.711 172.721,157.044 174.5,157C 175.328,157.915 176.328,158.581 177.5,159C 170.406,166.053 163.239,166.22 156,159.5C 151.581,151.768 153.415,146.101 161.5,142.5 Z"/></g>
<g><path style="opacity:1" fill="#606060" d="M 335.5,155.5 C 335.5,158.5 335.5,161.5 335.5,164.5C 333.265,164.795 331.265,164.461 329.5,163.5C 331.167,163.5 332.833,163.5 334.5,163.5C 334.194,160.615 334.527,157.948 335.5,155.5 Z"/></g>
<g><path style="opacity:1" fill="#353535" d="M 297.5,143.5 C 295.833,143.5 294.167,143.5 292.5,143.5C 292.5,150.167 292.5,156.833 292.5,163.5C 293.833,163.5 295.167,163.5 296.5,163.5C 296.183,159.298 296.517,155.298 297.5,151.5C 297.5,155.833 297.5,160.167 297.5,164.5C 295.5,164.5 293.5,164.5 291.5,164.5C 291.5,157.167 291.5,149.833 291.5,142.5C 293.735,142.205 295.735,142.539 297.5,143.5 Z"/></g>
<g><path style="opacity:1" fill="#101010" d="M 335.5,155.5 C 334.527,157.948 334.194,160.615 334.5,163.5C 332.833,163.5 331.167,163.5 329.5,163.5C 329.664,160.813 329.497,158.146 329,155.5C 325.955,151.244 322.788,147.077 319.5,143C 321.5,142.333 323.5,142.333 325.5,143C 327.959,145.446 330.292,147.946 332.5,150.5C 334.69,148.144 336.69,145.644 338.5,143C 340.579,142.192 342.579,142.359 344.5,143.5C 341.476,147.518 338.476,151.518 335.5,155.5 Z"/></g>
<g><path style="opacity:1" fill="#888888" d="M 208.5,142.5 C 208.5,149.5 208.5,156.5 208.5,163.5C 210.167,163.5 211.833,163.5 213.5,163.5C 213.335,160.15 213.502,156.817 214,153.5C 215.039,154.244 215.539,155.244 215.5,156.5C 214.527,158.948 214.194,161.615 214.5,164.5C 212.167,164.5 209.833,164.5 207.5,164.5C 207.175,156.981 207.508,149.648 208.5,142.5 Z"/></g>
<g><path style="opacity:1" fill="#141414" d="M 186.5,142.5 C 192.767,141.442 198.1,143.109 202.5,147.5C 205.73,157.67 201.897,163.336 191,164.5C 182.471,163.068 178.805,158.068 180,149.5C 181.694,146.642 183.861,144.309 186.5,142.5 Z"/></g>
<g><path style="opacity:1" fill="#0e0e0e" d="M 314.5,142.5 C 314.5,149.5 314.5,156.5 314.5,163.5C 312.833,163.5 311.167,163.5 309.5,163.5C 305.14,159.806 301.14,155.806 297.5,151.5C 296.517,155.298 296.183,159.298 296.5,163.5C 295.167,163.5 293.833,163.5 292.5,163.5C 292.5,156.833 292.5,150.167 292.5,143.5C 294.167,143.5 295.833,143.5 297.5,143.5C 301.566,147.318 305.399,151.318 309,155.5C 309.499,151.179 309.666,146.846 309.5,142.5C 311.167,142.5 312.833,142.5 314.5,142.5 Z"/></g>
<g><path style="opacity:1" fill="#141414" d="M 271.5,142.5 C 273.792,142.244 275.959,142.577 278,143.5C 281.44,150.045 284.606,156.712 287.5,163.5C 285.604,164.466 283.604,164.799 281.5,164.5C 281.67,163.178 281.337,162.011 280.5,161C 276.5,160.333 272.5,160.333 268.5,161C 267.663,162.011 267.33,163.178 267.5,164.5C 265.396,164.799 263.396,164.466 261.5,163.5C 264.558,156.383 267.891,149.383 271.5,142.5 Z"/></g>
<g><path style="opacity:1" fill="#e7e7e7" d="M 273.5,149.5 C 276.083,150.985 277.416,153.318 277.5,156.5C 275.5,156.5 273.5,156.5 271.5,156.5C 271.878,154.079 272.545,151.746 273.5,149.5 Z"/></g>
<g><path style="opacity:1" fill="#f0f0f0" d="M 187.5,147.5 C 195.348,145.862 198.848,148.862 198,156.5C 193.322,160.689 188.989,160.356 185,155.5C 184.388,152.389 185.221,149.723 187.5,147.5 Z"/></g>
<g><path style="opacity:1" fill="#474747" d="M 314.5,142.5 C 315.492,149.648 315.825,156.981 315.5,164.5C 313.265,164.795 311.265,164.461 309.5,163.5C 311.167,163.5 312.833,163.5 314.5,163.5C 314.5,156.5 314.5,149.5 314.5,142.5 Z"/></g>
<g><path style="opacity:1" fill="#171717" d="M 242.5,142.5 C 247.511,142.334 252.511,142.501 257.5,143C 264.268,148.663 263.934,153.996 256.5,159C 253.854,159.497 251.187,159.664 248.5,159.5C 248.5,161.167 248.5,162.833 248.5,164.5C 246.5,164.5 244.5,164.5 242.5,164.5C 242.5,157.167 242.5,149.833 242.5,142.5 Z"/></g>
<g><path style="opacity:1" fill="#f1f1f1" d="M 248.5,147.5 C 250.857,147.337 253.19,147.503 255.5,148C 256.833,150 256.833,152 255.5,154C 253.19,154.497 250.857,154.663 248.5,154.5C 248.5,152.167 248.5,149.833 248.5,147.5 Z"/></g>
<g><path style="opacity:1" fill="#121212" d="M 208.5,142.5 C 210.792,142.244 212.959,142.577 215,143.5C 217.412,148.659 220.079,153.659 223,158.5C 225.484,153.531 227.984,148.531 230.5,143.5C 232.743,142.526 235.076,142.192 237.5,142.5C 237.5,149.833 237.5,157.167 237.5,164.5C 235.5,164.5 233.5,164.5 231.5,164.5C 231.665,161.15 231.498,157.817 231,154.5C 228.78,157.54 227.28,160.873 226.5,164.5C 220.48,165.17 216.813,162.503 215.5,156.5C 215.539,155.244 215.039,154.244 214,153.5C 213.502,156.817 213.335,160.15 213.5,163.5C 211.833,163.5 210.167,163.5 208.5,163.5C 208.5,156.5 208.5,149.5 208.5,142.5 Z"/></g>
<g><path style="opacity:1" fill="#58605e" d="M 273.5,120.5 C 275.288,120.215 276.955,120.548 278.5,121.5C 277.667,121.833 276.833,122.167 276,122.5C 274.624,122.316 273.791,121.649 273.5,120.5 Z"/></g>
<g><path style="opacity:1" fill="#716f78" d="M 268.5,120.5 C 271.167,121.167 271.167,121.833 268.5,122.5C 265.833,122.5 263.167,122.5 260.5,122.5C 260.281,121.325 260.614,120.325 261.5,119.5C 263.53,119.894 265.863,120.227 268.5,120.5 Z"/></g>
<g><path style="opacity:1" fill="#f5d9dc" d="M 251.5,103.5 C 250.195,105.397 249.529,107.731 249.5,110.5C 249.529,113.269 250.195,115.603 251.5,117.5C 253.167,117.5 254.833,117.5 256.5,117.5C 257.5,117.5 258.5,117.5 259.5,117.5C 259.5,113.833 259.5,110.167 259.5,106.5C 259.833,106.5 260.167,106.5 260.5,106.5C 260.5,109.833 260.5,113.167 260.5,116.5C 263.625,117.479 266.958,117.813 270.5,117.5C 270.5,113.833 270.5,110.167 270.5,106.5C 270.833,106.5 271.167,106.5 271.5,106.5C 271.227,108.451 271.893,109.951 273.5,111C 271.75,112.754 271.083,114.921 271.5,117.5C 273.833,117.5 276.167,117.5 278.5,117.5C 274.881,117.881 271.548,118.881 268.5,120.5C 265.863,120.227 263.53,119.894 261.5,119.5C 260.614,120.325 260.281,121.325 260.5,122.5C 263.167,122.5 265.833,122.5 268.5,122.5C 265.713,123.477 262.713,123.81 259.5,123.5C 259.307,119.551 258.807,119.551 258,123.5C 257.258,118.879 254.758,117.546 250.5,119.5C 248.962,119.547 247.962,118.88 247.5,117.5C 248.791,113.601 248.791,109.601 247.5,105.5C 248.404,104.791 248.737,103.791 248.5,102.5C 249.791,102.263 250.791,102.596 251.5,103.5 Z"/></g>
<g><path style="opacity:1" fill="#4f4f4f" d="M 325.5,112.5 C 323.92,115.263 322.087,117.93 320,120.5C 320.15,118.494 320.65,116.494 321.5,114.5C 322.5,114.167 323.167,113.5 323.5,112.5C 325.558,108.551 326.224,108.551 325.5,112.5 Z"/></g>
<g><path style="opacity:1" fill="#d9d9d9" d="M 174.5,109.5 C 174.881,110.931 175.881,111.764 177.5,112C 176.289,112.893 176.289,113.726 177.5,114.5C 179.12,111.942 180.62,111.942 182,114.5C 183.481,113.529 184.315,112.196 184.5,110.5C 184.842,109.662 185.508,109.328 186.5,109.5C 183.964,115.565 184.63,115.899 188.5,110.5C 190.164,112.679 189.83,114.512 187.5,116C 184.982,115.401 182.816,116.234 181,118.5C 180.101,116.632 178.601,115.632 176.5,115.5C 174.402,117.489 172.402,119.655 170.5,122C 169.207,122.49 167.873,122.657 166.5,122.5C 166.33,121.178 166.663,120.011 167.5,119C 165.781,117.13 164.781,114.963 164.5,112.5C 164.5,111.5 164.5,110.5 164.5,109.5C 165.791,109.263 166.791,109.596 167.5,110.5C 164.813,112.394 164.813,113.061 167.5,112.5C 169.054,111.086 170.388,109.419 171.5,107.5C 172.096,108.716 172.263,110.049 172,111.5C 172.708,110.619 173.542,109.953 174.5,109.5 Z"/></g>
<g><path style="opacity:1" fill="#ababab" d="M 345.5,112.5 C 346.458,112.047 347.292,111.381 348,110.5C 348.957,112.709 350.124,112.543 351.5,110C 352.944,109.219 354.277,109.386 355.5,110.5C 354.167,111.5 352.833,112.5 351.5,113.5C 354.321,114.842 354.154,115.508 351,115.5C 349.674,115.245 348.674,114.578 348,113.5C 346.484,116.051 345.651,115.718 345.5,112.5 Z"/></g>
<g><path style="opacity:1" fill="#838383" d="M 328.5,114.5 C 326.668,115.718 325.668,115.051 325.5,112.5C 326.794,111.71 327.961,110.71 329,109.5C 329.333,111.047 328.833,112.38 327.5,113.5C 327.624,114.107 327.957,114.44 328.5,114.5 Z"/></g>
<g><path style="opacity:1" fill="#a9a9a9" d="M 323.5,112.5 C 323.167,113.5 322.5,114.167 321.5,114.5C 321.565,114.062 321.399,113.728 321,113.5C 318.435,115.179 315.602,115.846 312.5,115.5C 313.281,110.143 315.781,108.81 320,111.5C 320.414,111.043 320.914,110.709 321.5,110.5C 322.182,111.243 322.849,111.909 323.5,112.5 Z"/></g>
<g><path style="opacity:1" fill="#b8b8b8" d="M 303.5,111.5 C 302.811,114.353 300.978,116.019 298,116.5C 296.989,115.663 295.822,115.33 294.5,115.5C 294.281,114.325 294.614,113.325 295.5,112.5C 296.696,112.846 296.696,113.346 295.5,114C 298.775,114.982 301.441,114.149 303.5,111.5 Z"/></g>
<g><path style="opacity:1" fill="#2b2528" d="M 245.5,105.5 C 246.167,105.5 246.833,105.5 247.5,105.5C 248.791,109.601 248.791,113.601 247.5,117.5C 245.75,114.645 244.917,111.311 245,107.5C 244.502,110.817 244.335,114.15 244.5,117.5C 243.5,117.5 242.5,117.5 241.5,117.5C 241.5,113.833 241.5,110.167 241.5,106.5C 242.568,105.566 243.901,105.232 245.5,105.5 Z"/></g>
<g><path style="opacity:1" fill="#717171" d="M 198.5,109.5 C 199.239,109.369 199.906,109.536 200.5,110C 199.327,113.11 199.827,113.277 202,110.5C 200.934,113.966 199.267,117.299 197,120.5C 196.735,118.837 197.235,117.337 198.5,116C 197.975,115.308 197.308,114.808 196.5,114.5C 195.549,115.326 194.549,115.492 193.5,115C 195.064,112.294 196.731,110.461 198.5,109.5 Z"/></g>
<g><path style="opacity:1" fill="#d23d45" d="M 259.5,106.5 C 259.5,110.167 259.5,113.833 259.5,117.5C 258.5,117.5 257.5,117.5 256.5,117.5C 256.665,114.15 256.498,110.817 256,107.5C 255.821,110.553 255.321,113.553 254.5,116.5C 253.914,116.291 253.414,115.957 253,115.5C 252.502,112.518 252.335,109.518 252.5,106.5C 254.833,106.5 257.167,106.5 259.5,106.5 Z"/></g>
<g><path style="opacity:1" fill="#191919" d="M 214.5,106.5 C 214.367,109.896 213.367,110.229 211.5,107.5C 210.374,109.506 211.04,110.84 213.5,111.5C 214.452,113.045 214.785,114.712 214.5,116.5C 213.054,117.613 211.387,117.78 209.5,117C 208.663,115.989 208.33,114.822 208.5,113.5C 209.735,113.721 210.735,114.388 211.5,115.5C 212.798,113.948 212.465,112.948 210.5,112.5C 208.757,110.874 208.257,108.874 209,106.5C 210.943,105.193 212.777,105.193 214.5,106.5 Z"/></g>
<g><path style="opacity:1" fill="#707070" d="M 208.5,113.5 C 208.842,112.662 209.508,112.328 210.5,112.5C 212.465,112.948 212.798,113.948 211.5,115.5C 210.735,114.388 209.735,113.721 208.5,113.5 Z"/></g>
<g><path style="opacity:1" fill="#3f3f3f" d="M 167.5,110.5 C 167.5,111.167 167.5,111.833 167.5,112.5C 164.813,113.061 164.813,112.394 167.5,110.5 Z"/></g>
<g><path style="opacity:1" fill="#585858" d="M 164.5,109.5 C 164.5,110.5 164.5,111.5 164.5,112.5C 163.416,113.974 162.082,114.807 160.5,115C 161.488,112.833 162.821,111 164.5,109.5 Z"/></g>
<g><path style="opacity:1" fill="#b6b6b6" d="M 338.5,111.5 C 338.351,112.552 338.517,113.552 339,114.5C 339.377,113.058 340.21,112.058 341.5,111.5C 342.482,110.859 343.482,110.193 344.5,109.5C 345.386,110.325 345.719,111.325 345.5,112.5C 344.571,113.936 343.405,115.269 342,116.5C 340.167,116.333 338.333,116.167 336.5,116C 335.571,118.391 334.071,120.225 332,121.5C 330.437,120.898 330.604,120.065 332.5,119C 331.004,118.493 329.837,118.993 329,120.5C 329.031,117.799 330.531,116.299 333.5,116C 331.84,114.736 330.173,114.236 328.5,114.5C 328.833,113.5 329.5,112.833 330.5,112.5C 331.167,112.167 331.833,111.833 332.5,111.5C 334.641,108.981 336.641,108.981 338.5,111.5 Z"/></g>
<g><path style="opacity:1" fill="#4f4f4f" d="M 341.5,111.5 C 340.21,112.058 339.377,113.058 339,114.5C 338.517,113.552 338.351,112.552 338.5,111.5C 339.151,110.909 339.818,110.243 340.5,109.5C 341.298,109.957 341.631,110.624 341.5,111.5 Z"/></g>
<g><path style="opacity:1" fill="#888888" d="M 153.5,112.5 C 152.175,113.953 151.342,113.619 151,111.5C 149.592,115.169 147.925,115.169 146,111.5C 145.085,112.328 144.419,113.328 144,114.5C 143.113,111.292 141.447,111.292 139,114.5C 138.751,113.376 138.251,112.376 137.5,111.5C 136.5,112.833 135.5,114.167 134.5,115.5C 134.167,115.167 133.833,114.833 133.5,114.5C 134.806,113.088 135.64,111.421 136,109.5C 139.435,109.949 143.101,109.949 147,109.5C 147.945,109.905 148.612,110.572 149,111.5C 150.11,109.963 151.61,109.297 153.5,109.5C 153.5,110.5 153.5,111.5 153.5,112.5 Z"/></g>
<g><path style="opacity:1" fill="#939393" d="M 363.5,112.5 C 362.206,116.223 361.039,116.223 360,112.5C 358.935,114.396 358.102,114.563 357.5,113C 359.072,110.172 361.406,109.172 364.5,110C 363.748,110.671 363.414,111.504 363.5,112.5 Z"/></g>
<g><path style="opacity:1" fill="#484848" d="M 332.5,111.5 C 331.833,111.833 331.167,112.167 330.5,112.5C 330.281,111.325 330.614,110.325 331.5,109.5C 332.298,109.957 332.631,110.624 332.5,111.5 Z"/></g>
<g><path style="opacity:1" fill="#404040" d="M 314.5,105.5 C 313.921,108.331 312.588,110.664 310.5,112.5C 311.079,109.669 312.412,107.336 314.5,105.5 Z"/></g>
<g><path style="opacity:1" fill="#b9b9b9" d="M 314.5,105.5 C 312.412,107.336 311.079,109.669 310.5,112.5C 310.315,114.89 308.982,115.89 306.5,115.5C 305.5,115.333 304.5,115.167 303.5,115C 304.293,113.915 304.96,112.748 305.5,111.5C 305.03,110.537 304.363,110.537 303.5,111.5C 303.751,109.83 304.418,108.33 305.5,107C 304.08,105.47 303.08,103.637 302.5,101.5C 298.852,102.473 297.186,104.807 297.5,108.5C 299.446,108.193 301.113,108.193 302.5,108.5C 300.604,109.466 298.604,109.799 296.5,109.5C 295.5,102.5 298.5,99.5 305.5,100.5C 304.888,104.876 306.054,105.543 309,102.5C 309,104.5 309,106.5 309,108.5C 311.167,106.333 313.333,104.167 315.5,102C 317.5,101.333 319.5,101.333 321.5,102C 322.517,103.049 322.684,104.216 322,105.5C 319.661,101.754 317.161,101.754 314.5,105.5 Z"/></g>
<g><path style="opacity:1" fill="#ca4549" d="M 278.5,117.5 C 276.167,117.5 273.833,117.5 271.5,117.5C 271.083,114.921 271.75,112.754 273.5,111C 271.893,109.951 271.227,108.451 271.5,106.5C 273.468,105.181 275.468,105.181 277.5,106.5C 278.489,110.107 278.823,113.774 278.5,117.5 Z"/></g>
<g><path style="opacity:1" fill="#c53343" d="M 251.5,103.5 C 251.5,108.167 251.5,112.833 251.5,117.5C 250.195,115.603 249.529,113.269 249.5,110.5C 249.529,107.731 250.195,105.397 251.5,103.5 Z"/></g>
<g><path style="opacity:1" fill="#9c9d9c" d="M 240.5,106.5 C 240.833,106.5 241.167,106.5 241.5,106.5C 241.5,110.167 241.5,113.833 241.5,117.5C 240.833,117.5 240.167,117.5 239.5,117.5C 240.423,113.936 240.756,110.269 240.5,106.5 Z"/></g>
<g><path style="opacity:1" fill="#1e1e1e" d="M 227.5,116.5 C 227.5,113.167 227.5,109.833 227.5,106.5C 231.659,104.414 233.659,105.748 233.5,110.5C 232.5,110.5 231.5,110.5 230.5,110.5C 229.167,111.167 229.167,111.833 230.5,112.5C 231.5,112.5 232.5,112.5 233.5,112.5C 233.338,116.904 231.338,118.237 227.5,116.5 Z"/></g>
<g><path style="opacity:1" fill="#0f0f0f" d="M 225.5,116.5 C 225.158,117.338 224.492,117.672 223.5,117.5C 223.176,113.445 223.509,109.445 224.5,105.5C 225.489,109.107 225.823,112.774 225.5,116.5 Z"/></g>
<g><path style="opacity:1" fill="#545454" d="M 153.5,112.5 C 154.458,112.047 155.292,111.381 156,110.5C 156,111.833 156,113.167 156,114.5C 157.167,112.833 158.333,111.167 159.5,109.5C 159.833,109.833 160.167,110.167 160.5,110.5C 158.667,113.5 156.833,116.5 155,119.5C 154.508,118.451 154.674,117.451 155.5,116.5C 154.147,115.476 153.48,114.143 153.5,112.5 Z"/></g>
<g><path style="opacity:1" fill="#414141" d="M 196.5,104.5 C 197.573,105.251 197.74,106.251 197,107.5C 195.667,109.5 194.333,111.5 193,113.5C 193.575,110.337 194.742,107.337 196.5,104.5 Z"/></g>
<g><path style="opacity:1" fill="#898989" d="M 174.5,109.5 C 177.711,109.012 180.544,109.679 183,111.5C 183.383,110.944 183.883,110.611 184.5,110.5C 184.315,112.196 183.481,113.529 182,114.5C 180.62,111.942 179.12,111.942 177.5,114.5C 176.289,113.726 176.289,112.893 177.5,112C 175.881,111.764 174.881,110.931 174.5,109.5 Z"/></g>
<g><path style="opacity:1" fill="#e26971" d="M 270.5,102.5 C 270.5,103.833 270.5,105.167 270.5,106.5C 270.5,110.167 270.5,113.833 270.5,117.5C 266.958,117.813 263.625,117.479 260.5,116.5C 262.5,116.5 264.5,116.5 266.5,116.5C 266.826,112.116 266.492,107.783 265.5,103.5C 264.818,104.243 264.151,104.909 263.5,105.5C 263.5,104.5 263.5,103.5 263.5,102.5C 265.833,102.5 268.167,102.5 270.5,102.5 Z"/></g>
<g><path style="opacity:1" fill="#171716" d="M 240.5,106.5 C 240.756,110.269 240.423,113.936 239.5,117.5C 237.833,117.5 236.167,117.5 234.5,117.5C 234.5,113.5 234.5,109.5 234.5,105.5C 236.621,105.325 238.621,105.659 240.5,106.5 Z"/></g>
<g><path style="opacity:1" fill="#919191" d="M 236.5,107.5 C 237.748,108.334 238.415,109.667 238.5,111.5C 238.167,112.833 237.833,114.167 237.5,115.5C 236.52,112.914 236.187,110.247 236.5,107.5 Z"/></g>
<g><path style="opacity:1" fill="#494949" d="M 188.5,110.5 C 184.63,115.899 183.964,115.565 186.5,109.5C 191.645,102.739 192.312,103.072 188.5,110.5 Z"/></g>
<g><path style="opacity:1" fill="#9b9b9b" d="M 363.5,112.5 C 365.451,111.284 366.951,109.618 368,107.5C 367.833,109.833 367.667,112.167 367.5,114.5C 366.998,115.521 366.332,115.688 365.5,115C 366.673,111.89 366.173,111.723 364,114.5C 363.536,113.906 363.369,113.239 363.5,112.5 Z"/></g>
<g><path style="opacity:1" fill="#f1858b" d="M 251.5,103.5 C 254.028,104.935 256.695,105.935 259.5,106.5C 257.167,106.5 254.833,106.5 252.5,106.5C 252.335,109.518 252.502,112.518 253,115.5C 253.414,115.957 253.914,116.291 254.5,116.5C 255.321,113.553 255.821,110.553 256,107.5C 256.498,110.817 256.665,114.15 256.5,117.5C 254.833,117.5 253.167,117.5 251.5,117.5C 251.5,112.833 251.5,108.167 251.5,103.5 Z"/></g>
<g><path style="opacity:1" fill="#b82b36" d="M 260.5,116.5 C 260.5,113.167 260.5,109.833 260.5,106.5C 261.209,105.596 262.209,105.263 263.5,105.5C 264.151,104.909 264.818,104.243 265.5,103.5C 266.492,107.783 266.826,112.116 266.5,116.5C 264.5,116.5 262.5,116.5 260.5,116.5 Z"/></g>
<g><path style="opacity:1" fill="#ff7e8c" d="M 262.5,107.5 C 263.748,108.334 264.415,109.667 264.5,111.5C 264.167,112.833 263.833,114.167 263.5,115.5C 262.52,112.914 262.187,110.247 262.5,107.5 Z"/></g>
<g><path style="opacity:1" fill="#8a8a8a" d="M 227.5,106.5 C 227.5,109.833 227.5,113.167 227.5,116.5C 226.833,116.5 226.167,116.5 225.5,116.5C 225.823,112.774 225.489,109.107 224.5,105.5C 223.509,109.445 223.176,113.445 223.5,117.5C 223.167,117.5 222.833,117.5 222.5,117.5C 222.5,112.833 222.5,108.167 222.5,103.5C 221.5,103.5 220.5,103.5 219.5,103.5C 219.5,108.167 219.5,112.833 219.5,117.5C 217.708,117.634 216.042,117.301 214.5,116.5C 214.785,114.712 214.452,113.045 213.5,111.5C 211.04,110.84 210.374,109.506 211.5,107.5C 213.367,110.229 214.367,109.896 214.5,106.5C 215.434,105.432 215.768,104.099 215.5,102.5C 219.167,102.5 222.833,102.5 226.5,102.5C 226.232,104.099 226.566,105.432 227.5,106.5 Z"/></g>
<g><path style="opacity:1" fill="#131313" d="M 216.5,106.5 C 217.777,107.694 218.444,109.36 218.5,111.5C 218.167,113.167 217.833,114.833 217.5,116.5C 216.513,113.232 216.18,109.898 216.5,106.5 Z"/></g>
<g><path style="opacity:1" fill="#353535" d="M 222.5,117.5 C 221.5,117.5 220.5,117.5 219.5,117.5C 219.5,112.833 219.5,108.167 219.5,103.5C 220.5,103.5 221.5,103.5 222.5,103.5C 222.5,108.167 222.5,112.833 222.5,117.5 Z"/></g>
<g><path style="opacity:1" fill="#f1efef" d="M 262.5,83.5 C 264.998,82.8283 267.331,82.8283 269.5,83.5C 269.489,85.5466 269.156,87.5466 268.5,89.5C 268.747,90.7133 269.414,91.38 270.5,91.5C 271.239,91.369 271.906,91.5357 272.5,92C 270.36,94.1735 270.026,96.6735 271.5,99.5C 263.846,99.1287 263.513,100.129 270.5,102.5C 268.167,102.5 265.833,102.5 263.5,102.5C 263.5,103.5 263.5,104.5 263.5,105.5C 262.209,105.263 261.209,105.596 260.5,106.5C 260.167,106.5 259.833,106.5 259.5,106.5C 256.695,105.935 254.028,104.935 251.5,103.5C 250.791,102.596 249.791,102.263 248.5,102.5C 248.737,103.791 248.404,104.791 247.5,105.5C 246.833,105.5 246.167,105.5 245.5,105.5C 246.843,102.469 247.843,99.3028 248.5,96C 247.267,94.3333 245.933,92.8333 244.5,91.5C 246.604,91.7989 248.604,91.4656 250.5,90.5C 250.376,89.8933 250.043,89.56 249.5,89.5C 249.973,88.0937 250.973,87.427 252.5,87.5C 252.5,88.8333 252.5,90.1667 252.5,91.5C 253.873,91.6567 255.207,91.49 256.5,91C 254.637,89.5822 254.137,87.7489 255,85.5C 258.11,84.3266 258.277,84.8266 255.5,87C 257.934,87.3329 258.934,86.1662 258.5,83.5C 259.167,84.1667 259.833,84.8333 260.5,85.5C 259.659,87.3792 259.325,89.3792 259.5,91.5C 260.552,91.6495 261.552,91.4828 262.5,91C 261.721,88.2132 261.721,85.7132 262.5,83.5 Z"/></g>
<g><path style="opacity:1" fill="#282828" d="M 249.5,89.5 C 250.043,89.56 250.376,89.8933 250.5,90.5C 248.604,91.4656 246.604,91.7989 244.5,91.5C 243.448,91.6495 242.448,91.4828 241.5,91C 243.32,87.4093 244.32,83.5759 244.5,79.5C 245.873,79.3433 247.207,79.51 248.5,80C 246.345,83.1116 245.345,86.6116 245.5,90.5C 247.099,90.7678 248.432,90.4345 249.5,89.5 Z"/></g>
<g><path style="opacity:1" fill="#1c1c1c" d="M 264.5,83.5 C 265.586,83.62 266.253,84.2867 266.5,85.5C 266.14,87.6079 265.473,89.6079 264.5,91.5C 263.795,88.911 263.795,86.2443 264.5,83.5 Z"/></g>
<g><path style="opacity:1" fill="#202020" d="M 269.5,83.5 C 272.5,83.5 275.5,83.5 278.5,83.5C 278.425,86.4067 277.591,89.0734 276,91.5C 275.667,89.1667 275.333,86.8333 275,84.5C 271.495,85.5035 269.995,87.8368 270.5,91.5C 269.414,91.38 268.747,90.7133 268.5,89.5C 269.156,87.5466 269.489,85.5466 269.5,83.5 Z"/></g>
<g><path style="opacity:1" fill="#1a1a1a" d="M 262.5,83.5 C 261.721,85.7132 261.721,88.2132 262.5,91C 261.552,91.4828 260.552,91.6495 259.5,91.5C 259.325,89.3792 259.659,87.3792 260.5,85.5C 260.833,84.5 261.5,83.8333 262.5,83.5 Z"/></g>
<g><path style="opacity:1" fill="#262626" d="M 235.5,79.5 C 237.176,80.1834 237.843,81.5168 237.5,83.5C 238.5,83.5 239.5,83.5 240.5,83.5C 240.913,88.7131 238.58,91.3798 233.5,91.5C 233.541,87.3837 234.207,83.3837 235.5,79.5 Z"/></g>
<g><path style="opacity:1" fill="#2b2b2b" d="M 227.5,83.5 C 228.376,83.3691 229.043,83.7025 229.5,84.5C 228.494,85.3957 228.494,86.0623 229.5,86.5C 230.167,85.5 230.833,84.5 231.5,83.5C 231.833,84 232.167,84.5 232.5,85C 231.312,86.9441 229.646,88.4441 227.5,89.5C 228.025,90.1924 228.692,90.6924 229.5,91C 227.393,91.8542 226.059,91.1875 225.5,89C 226.32,87.1997 226.986,85.3664 227.5,83.5 Z"/></g>
<g><path style="opacity:1" fill="#141414" d="M 280.5,83.5 C 281.586,83.62 282.253,84.2867 282.5,85.5C 282.14,87.6079 281.473,89.6079 280.5,91.5C 279.795,88.911 279.795,86.2443 280.5,83.5 Z"/></g>
<g><path style="opacity:1" fill="#262626" d="M 258.5,83.5 C 258.934,86.1662 257.934,87.3329 255.5,87C 258.277,84.8266 258.11,84.3266 255,85.5C 254.137,87.7489 254.637,89.5822 256.5,91C 255.207,91.49 253.873,91.6567 252.5,91.5C 252.5,90.1667 252.5,88.8333 252.5,87.5C 253.122,84.2244 255.122,82.8911 258.5,83.5 Z"/></g>
<g><path style="opacity:1" fill="#dddddd" d="M 236.5,84.5 C 239.057,86.4039 238.89,88.4039 236,90.5C 235.51,88.4546 235.677,86.4546 236.5,84.5 Z"/></g>
<g><path style="opacity:1" fill="#272727" d="M 216.5,79.5 C 219.247,79.1866 221.914,79.52 224.5,80.5C 222.748,83.672 220.748,86.672 218.5,89.5C 220.338,90.1887 222.005,90.5221 223.5,90.5C 220.833,91.8333 218.167,91.8333 215.5,90.5C 217.5,87.5 219.5,84.5 221.5,81.5C 219.741,80.246 218.241,80.5794 217,82.5C 216.517,81.552 216.351,80.552 216.5,79.5 Z"/></g>
<g><path style="opacity:1" fill="#dedfdf" d="M 14.5,15.5 C 14.5,15.1667 14.5,14.8333 14.5,14.5C 171.5,14.5 328.5,14.5 485.5,14.5C 485.5,129.167 485.5,243.833 485.5,358.5C 328.833,358.667 172.166,358.5 15.5,358C 171.833,357.5 328.166,357.333 484.5,357.5C 484.5,243.5 484.5,129.5 484.5,15.5C 327.833,15.5 171.167,15.5 14.5,15.5 Z"/></g>
</svg>
